<?xml version="1.0" standalone="no"?><!DOCTYPE svg PUBLIC "-//W3C//DTD SVG 1.1//EN" "http://www.w3.org/Graphics/SVG/1.1/DTD/svg11.dtd"><svg t="1637214764633" class="icon" viewBox="0 0 1024 1024" version="1.1" xmlns="http://www.w3.org/2000/svg" p-id="9221" xmlns:xlink="http://www.w3.org/1999/xlink" width="128" height="128"><defs><style type="text/css"></style></defs><path d="M512 574.816m-48 0a48 48 0 1 0 96 0 48 48 0 1 0-96 0Z" fill="#e6e6e6" p-id="9222"></path><path d="M857.6 125.632c-70.24 0-131.136 43.456-155.232 105.024C649.824 204.704 587.072 192 512 192s-137.824 12.704-190.368 38.656c-24.096-61.568-84.992-105.024-155.2-105.024C74.624 125.632 0 198.976 0 289.152c0 80.416 59.392 147.488 137.344 161.024C128 489.824 128 531.84 128 572.8v3.2c0 215.328 168.672 384 384 384s384-168.672 384-384v-3.2c0-40.96 0-82.976-9.312-122.624C964.576 436.64 1024 369.6 1024 289.152c0-90.176-74.656-163.52-166.4-163.52z m0 263.04c-3.936 0-7.808-0.256-11.616-0.672a32 32 0 0 0-32.352 45.632C832 472.032 832 523.232 832 572.736V576c0 182.432-137.568 320-320 320S192 758.432 192 576v-3.2c0-49.536 0-100.736 18.368-139.2a32 32 0 0 0-32.352-45.6c-3.84 0.416-7.68 0.672-11.616 0.672-56.448 0-102.4-44.64-102.4-99.52s45.952-99.52 102.4-99.52c53.664 0 98.464 40.8 102.016 92.864a32 32 0 0 0 50.24 24.064C367.36 272.544 430.624 256 512 256s144.64 16.544 193.344 50.56a31.936 31.936 0 0 0 50.24-24.064c3.52-52.064 48.352-92.864 102.016-92.864 56.448 0 102.4 44.64 102.4 99.52s-45.952 99.52-102.4 99.52z" fill="#e6e6e6" p-id="9223"></path><path d="M384 446.816m-32 0a32 32 0 1 0 64 0 32 32 0 1 0-64 0Z" fill="#e6e6e6" p-id="9224"></path><path d="M640 446.816m-32 0a32 32 0 1 0 64 0 32 32 0 1 0-64 0Z" fill="#e6e6e6" p-id="9225"></path><path d="M811.008 235.328a16 16 0 1 0 22.112 23.136c14.464-13.888 40.064-13.888 54.528 0 7.04 6.72 10.944 15.68 10.944 25.088s-3.904 18.368-10.944 25.12a16 16 0 1 0 22.08 23.104 66.176 66.176 0 0 0 0.064-96.448c-26.432-25.344-72.32-25.312-98.784 0zM114.624 235.328a66.272 66.272 0 0 0 0 96.448 15.904 15.904 0 0 0 22.624-0.512 16 16 0 0 0-0.512-22.592c-7.04-6.72-10.912-15.68-10.912-25.12s3.872-18.336 10.944-25.12c14.432-13.824 40-13.856 54.496 0a16 16 0 0 0 22.112-23.104c-26.432-25.28-72.32-25.28-98.752 0zM608 718.816a80.096 80.096 0 0 1-80-80c0-0.768-0.32-1.408-0.416-2.144A63.936 63.936 0 0 0 576 574.816c0-35.296-28.704-64-64-64s-64 28.704-64 64c0 29.888 20.672 54.848 48.416 61.856-0.096 0.736-0.416 1.376-0.416 2.144 0 44.096-35.904 80-80 80a16 16 0 1 0 0 32 111.68 111.68 0 0 0 96-55.232 111.68 111.68 0 0 0 96 55.232 16 16 0 1 0 0-32z m-128-144c0-17.632 14.368-32 32-32s32 14.368 32 32-14.368 32-32 32-32-14.368-32-32z" fill="#e6e6e6" p-id="9226"></path></svg>