<?xml version="1.0" standalone="no"?><!DOCTYPE svg PUBLIC "-//W3C//DTD SVG 1.1//EN" "http://www.w3.org/Graphics/SVG/1.1/DTD/svg11.dtd"><svg t="1637214706753" class="icon" viewBox="0 0 1024 1024" version="1.1" xmlns="http://www.w3.org/2000/svg" p-id="6660" xmlns:xlink="http://www.w3.org/1999/xlink" width="128" height="128"><defs><style type="text/css"></style></defs><path d="M991.719839 383.891551c0 63.022196-73.483241 127.96385-164.305584 127.96385-90.854334 0-148.310102-70.955955-219.585966-127.96385 71.275865-57.007895 128.763624-127.96385 219.585966-127.963851C918.236598 255.9277 991.719839 320.869354 991.719839 383.891551zM31.990963 383.891551c0 63.022196 73.483241 127.96385 164.305583 127.96385 90.854334 0 148.310102-70.955955 219.585967-127.96385-71.275865-57.007895-128.763624-127.96385-219.585967-127.963851C105.474204 255.9277 31.990963 320.869354 31.990963 383.891551z" fill="#e6e6e6" p-id="6661"></path><path d="M196.296546 543.846363c64.717717 0 113.855836-30.039514 158.579202-66.15731A226.847915 226.847915 0 0 0 319.909626 599.734575v82.024828c0 80.841162 28.152047 159.85884 79.273605 222.497145l87.879174 107.681579a32.022954 32.022954 0 0 0 49.585992 0l87.879174-107.681579A352.860317 352.860317 0 0 0 703.801176 681.727412v-82.024828a226.879906 226.879906 0 0 0-34.966122-122.045522C713.55842 513.838841 762.696538 543.846363 827.414255 543.846363 931.992712 543.846363 1023.710802 469.115475 1023.710802 383.891551s-91.71809-159.954813-196.296547-159.954813c-63.853961 0-112.544206 29.175758-156.755716 64.621744 0.31991-3.838916 1.151675-7.485885 1.151675-11.420773V181.708667a147.798247 147.798247 0 0 0-17.211138-68.204732C677.952478 65.453509 726.834669 31.990963 783.778583 31.990963a15.995481 15.995481 0 1 0 0-31.990963 175.854321 175.854321 0 0 0-149.525759 83.592385C606.804578 52.241242 566.975829 31.990963 522.092509 31.990963h-20.474216c-44.88332 0-84.712069 20.250279-112.160315 51.601422A175.854321 175.854321 0 0 0 239.932219 0a15.995481 15.995481 0 1 0 0 31.990963c56.943913 0 105.826104 33.462547 129.179507 81.512972A147.798247 147.798247 0 0 0 351.900588 181.708667v95.429042c0 3.934888 0.863756 7.613849 1.151675 11.452764C308.840752 253.112496 260.150507 223.936738 196.296546 223.936738 91.71809 223.936738 0 298.667626 0 383.891551s91.71809 159.954813 196.296546 159.954812z m475.353713-172.17536C722.995754 326.723701 767.303237 287.918663 827.414255 287.918663 901.953198 287.918663 959.728877 339.520086 959.728877 383.891551s-57.807669 95.972888-132.314622 95.972887c-60.079028 0-104.418502-38.805038-155.795987-83.75234-4.63869-4.062852-9.277379-8.157695-13.980051-12.220547l14.012042-12.220548z m-96.676689 492.116977L511.855401 941.110136l-63.118169-77.322156a288.590473 288.590473 0 0 1-63.917943-161.010515c37.013544 29.559649 82.024828 44.403456 127.036112 44.403456s90.022569-14.843807 127.036112-44.403456A288.590473 288.590473 0 0 1 574.97357 863.755989zM415.882513 181.708667A85.831753 85.831753 0 0 1 501.618293 95.972888h20.474216A85.831753 85.831753 0 0 1 607.828289 181.708667v95.429042a79.75347 79.75347 0 0 1-79.657497 79.657496h-32.630782A79.75347 79.75347 0 0 1 415.882513 277.1697V181.708667z m6.814075 311.591976c24.025213-27.096345 55.728257-42.068116 89.158813-42.068116s65.1336 14.97177 89.190803 42.100107c18.074894 20.410234 30.039514 45.87504 35.413996 73.643195-1.023711 0.639819-2.111404 1.087693-3.00715 1.98344a172.143369 172.143369 0 0 1-243.195298 0c-0.895747-0.895747-1.98344-1.34362-3.00715-1.98344a154.836259 154.836259 0 0 1 35.445986-73.643195zM383.891551 606.164758c37.205489 30.039514 82.568674 45.107257 127.96385 45.107258s90.758361-15.067743 127.96385-45.107258v55.088438a15.643581 15.643581 0 0 0-6.398192 3.710952 172.143369 172.143369 0 0 1-243.131316 0 15.643581 15.643581 0 0 0-6.398192-3.710952v-55.088438zM196.296546 287.918663c60.079028 0 104.418502 38.805038 155.795988 83.75234 4.63869 4.062852 9.277379 8.157695 13.98005 12.220548l-14.012041 12.220547C300.715048 441.059401 256.407565 479.864438 196.296546 479.864438 121.757603 479.864438 63.981925 428.263016 63.981925 383.891551s57.807669-95.972888 132.314621-95.972888z" fill="#e6e6e6" p-id="6662"></path></svg>