<?xml version="1.0" standalone="no"?><!DOCTYPE svg PUBLIC "-//W3C//DTD SVG 1.1//EN" "http://www.w3.org/Graphics/SVG/1.1/DTD/svg11.dtd"><svg t="1637214585314" class="icon" viewBox="0 0 1024 1024" version="1.1" xmlns="http://www.w3.org/2000/svg" p-id="3643" xmlns:xlink="http://www.w3.org/1999/xlink" width="128" height="128"><defs><style type="text/css"></style></defs><path d="M992.07744 599.04c0.64 21.76-30.08 41.28-45.44 54.08-5.12 4.48-10.24 8.64-15.68 12.8-16.64 13.44-33.92 26.24-51.52 38.4-105.6 74.88-230.4 125.44-361.92 127.68-63.36 0.96-127.68-9.6-186.24-33.28 197.44-2.88 364.16-100.48 476.48-191.04 17.92-0.64 36.48-6.08 54.08-9.92 23.04-5.12 46.08-9.28 67.84-17.92 11.2-4.48 24.32-10.88 36.8-9.28 2.56 0.32 5.12 0.96 7.68 1.92 5.44 2.56 10.24 6.72 13.44 11.84 2.88 4.48 4.48 9.6 4.48 14.72z" fill="#e6e6e6" p-id="3644"></path><path d="M29.38944 476.128c1.824 1.408 3.616 2.784 5.44 4.48 5.696 5.152 11.328 15.456 16.32 24.576l2.176 3.968c10.752 18.56 20.864 41.024 31.904 66.016 1.856 4.32 3.68 8.352 5.92 13.184l4.96 11.2c8.352 18.912 15.584 35.168 23.776 50.464 12.96 24.864 27.584 46.368 49.152 72.192 39.136 45.856 89.696 81.6 150.24 106.176 57.696 23.36 123.52 35.68 190.4 35.68l8.384-0.064c128.384-2.176 259.744-48.384 379.552-133.344a890.496 890.496 0 0 0 52.8-39.328c5.952-4.576 11.616-9.152 16.736-13.632 2.272-1.92 4.928-3.968 7.744-6.176 20-15.52 50.176-39.04 49.184-72.48 0-11.232-3.328-22.336-9.376-31.712-6.368-10.176-15.936-18.624-29.248-24.768a64.544 64.544 0 0 0-14.88-3.744c-18.656-2.368-36.608 4.64-48.768 9.664l-3.936 1.6c-13.504 5.376-28.256 8.896-43.776 12.288a1311.808 1311.808 0 0 0 59.04-89.92c25.376-42.336 43.36-81.152 54.944-118.592l1.792-5.632c10.4-32.416 34.784-108.352-21.728-135.008-14.848-6.912-32.448-8.608-50.88-5.28-52.704 10.08-101.28 35.424-148.256 59.968a1366.4 1366.4 0 0 1-46.4 23.52c-60.544 28.832-128.64 58.336-174.4 58.336a70.72 70.72 0 0 1-20-2.528c-17.76-5.248-34.304-27.008-48.16-45.216-9.824-13.024-19.712-25.92-29.568-38.88-9.792-12.8-19.616-25.664-29.504-38.752-16.96-22.176-49.76-50.816-83.264-57.76-47.04-14.848-102.304-3.584-147.648 29.664C152.42944 224 125.93344 259.072 100.23744 292.992c-22.304 29.504-43.392 57.344-70.4 79.008-23.776 18.752-34.048 42.976-28.256 66.08 4.704 19.904 18.592 30.816 27.808 38.048z m40.32-54.048c33.376-26.784 57.888-59.168 81.6-90.496 23.904-31.648 46.528-61.568 76.64-83.68C248.94144 232.48 272.55744 224 294.41344 224c8.288 0 16.384 1.216 27.008 4.416 16.48 3.52 37.76 20.48 48.608 34.688 9.824 13.024 19.712 25.92 29.568 38.88 9.824 12.8 19.616 25.664 30.08 39.52 17.92 23.584 42.528 55.904 80.32 67.104 60.288 17.92 153.12-17.952 240.128-59.392 15.968-7.584 32.128-16 48.512-24.576 42.88-22.4 87.2-45.536 130.368-53.792a33.6 33.6 0 0 1 6.144-0.608c2.464 0 4.64 0.384 4.16-0.64 2.4 4.672 2.56 18.752-10.4 59.04l-1.984 6.24c-10.048 32.544-25.984 66.784-48.704 104.64-11.2 18.752-22.784 36.832-34.176 53.824-10.208 14.976-20.256 29.248-29.696 42.688a1573.44 1573.44 0 0 0-37.408 54.72A32 32 0 0 0 803.91744 640c1.6 0 4.16 0 7.296-0.448 16.096-0.832 31.744-4.544 45.632-7.808l23.424-5.248c20-4.32 40.672-8.768 61.28-16.96l4.704-1.92c2.976-1.216 6.816-2.816 9.824-4.128-5.76 6.08-15.552 13.696-20.48 17.536-3.456 2.688-6.688 5.216-9.984 8a295.808 295.808 0 0 1-14.784 12c-15.296 12.352-32 24.8-49.92 37.184-109.568 77.728-228.48 119.84-343.872 121.792l-7.36 0.064c-58.72 0-116.256-10.72-166.368-31.008-50.88-20.672-93.184-50.4-125.376-88.096-18.24-21.856-30.56-40-41.472-60.864-7.648-14.24-14.176-29.12-21.792-46.4l-10.752-24.064c-11.936-27.04-22.816-51.2-34.88-72l-1.76-3.2c-7.04-12.832-15.776-28.8-29.12-40.96a145.824 145.824 0 0 0-11.072-9.152c0.736-0.672 1.6-1.44 2.592-2.24z" fill="#e6e6e6" p-id="3645"></path><path d="M576.94144 542.016c57.792 0 115.52-25.12 165.792-75.424a16 16 0 1 0-22.624-22.624c-88.48 88.448-198.688 88.128-287.616-0.768a16 16 0 1 0-22.624 22.624c50.816 50.816 108.96 76.192 167.072 76.192z" fill="#e6e6e6" p-id="3646"></path><path d="M256.07744 352m-32 0a32 32 0 1 0 64 0 32 32 0 1 0-64 0Z" fill="#e6e6e6" p-id="3647"></path></svg>