<?xml version="1.0" standalone="no"?><!DOCTYPE svg PUBLIC "-//W3C//DTD SVG 1.1//EN" "http://www.w3.org/Graphics/SVG/1.1/DTD/svg11.dtd"><svg t="1637214684685" class="icon" viewBox="0 0 1024 1024" version="1.1" xmlns="http://www.w3.org/2000/svg" p-id="5895" xmlns:xlink="http://www.w3.org/1999/xlink" width="128" height="128"><defs><style type="text/css"></style></defs><path d="M628.87904 404.864c33.184-33.184 79.264-43.936 118.624-32.352 11.584 39.36 0.832 85.44-32.32 118.624-33.216 33.184-79.296 43.936-118.656 32.352-11.584-39.36-0.832-85.44 32.32-118.624zM395.15104 404.864c-33.184-33.184-79.264-43.936-118.624-32.352-11.584 39.36-0.832 85.44 32.32 118.624 33.216 33.184 79.296 43.936 118.656 32.352 11.584-39.36 0.832-85.44-32.32-118.624z" fill="#e6e6e6" p-id="5896"></path><path d="M48.62304 393.088c-9.344 26.816-15.36 56.128-18.368 89.152a422.336 422.336 0 0 0 39.168 221.44 385.28 385.28 0 0 0 112.896 140.896c45.92 35.648 90.144 51.776 135.168 66.496 11.456 3.712 25.344 13.12 41.44 24 35.296 23.808 83.616 56.448 152.864 56.928h0.448c68.96-0.48 117.376-33.088 152.704-56.896 16.16-10.88 30.08-20.32 41.6-24.032 45.024-14.72 89.216-30.848 135.2-66.496a385.248 385.248 0 0 0 112.864-140.864 422.272 422.272 0 0 0 39.168-221.472c-2.976-33.024-9.024-62.336-18.368-89.152 20.512-45.152 34.88-95.104 42.784-148.64 7.072-47.936 7.68-96.064 1.856-142.976a215.616 215.616 0 0 0-2.752-16.32l-31.392 6.24 30.4-10.944C1011.21504 52.384 987.34304 32 959.72704 32c-0.704 0-3.008 0.064-3.712 0.128-27.552 1.856-53.76 6.88-80 15.36a413.376 413.376 0 0 0-142.656 78.88 684.064 684.064 0 0 0-121.248-26.304 839.36 839.36 0 0 0-100.16-6.496c-32.224 0.064-64.96 2.176-100 6.496-40.48 4.928-81.152 13.76-121.408 26.368a408.896 408.896 0 0 0-142.464-78.944 329.216 329.216 0 0 0-80.096-15.36A96.48 96.48 0 0 0 64.30304 32C36.68704 32 12.87904 52.384 7.24704 82.752l-0.64 3.2c-0.96 4.896-1.952 9.984-2.624 15.424a531.52 531.52 0 0 0 1.856 143.04c7.904 53.568 22.272 103.52 42.784 148.672z m18.88-283.84c0.448-3.776 1.152-7.232 2.24-12.8a264.704 264.704 0 0 1 58.72 11.968 345.024 345.024 0 0 1 121.12 67.2c1.696 1.472 3.456 2.784 5.376 4.16 1.728 1.28 3.84 2.72 5.92 4.832 8.608 8.832 22.496 11.616 34.24 7.616a623.136 623.136 0 0 1 124.608-28.64 763.232 763.232 0 0 1 92.224-6.016c29.216 0.064 60.288 2.08 92.416 6.016 41.6 5.088 83.488 14.72 126.208 29.216a31.936 31.936 0 0 0 32.576-8.192c2.048-2.112 4.192-3.52 6.08-4.896 1.76-1.28 3.52-2.624 5.216-4.064a345.024 345.024 0 0 1 121.184-67.232 264.992 264.992 0 0 1 58.624-12l0.416 1.984c0.64 3.424 1.376 6.944 1.888 10.88 5.12 41.28 4.544 83.616-1.664 125.824-7.68 52.064-22.144 100-42.912 142.496a32 32 0 0 0-0.96 26.016c9.888 24.48 16.096 52.096 19.008 84.384a358.976 358.976 0 0 1-33.28 188.352 321.888 321.888 0 0 1-94.24 117.664c-37.952 29.44-73.408 42.368-115.808 56.192-20 6.496-38.208 18.816-57.536 31.808-33.248 22.4-67.616 45.568-117.152 45.984-49.792-0.416-84.064-23.584-117.248-45.984-19.264-12.992-37.44-25.28-57.408-31.808-42.432-13.824-77.888-26.784-115.808-56.192a321.952 321.952 0 0 1-94.272-117.664 359.04 359.04 0 0 1-33.28-188.352c2.88-32.288 9.12-59.904 19.008-84.384a32 32 0 0 0-0.96-26.016c-20.8-42.496-35.2-90.432-42.88-142.496a467.616 467.616 0 0 1-1.664-125.888z" fill="#e6e6e6" p-id="5897"></path><path d="M592.01504 538.848c11.616 3.424 23.744 5.152 36.096 5.152 36.64 0 71.552-14.72 98.368-41.536 36.192-36.192 50.144-87.744 36.384-134.464a15.968 15.968 0 0 0-10.848-10.848c-46.016-13.536-98.624 0.576-134.464 36.384-36.192 36.192-50.144 87.744-36.384 134.464 1.536 5.248 5.6 9.312 10.848 10.848z m48.16-122.688c25.376-25.344 61.056-36.8 94.112-30.4 6.432 33.088-4.8 68.416-30.432 94.08-25.376 25.344-61.12 36.768-94.112 30.4-6.432-33.088 4.8-68.416 30.432-94.08zM395.91904 544c12.352 0 24.48-1.728 36.096-5.152a15.968 15.968 0 0 0 10.848-10.848c13.76-46.72-0.192-98.24-36.384-134.464-35.84-35.84-88.416-49.92-134.464-36.384a15.968 15.968 0 0 0-10.848 10.848c-13.76 46.72 0.192 98.24 36.384 134.464 26.784 26.784 61.76 41.536 98.368 41.536z m-106.176-158.272c33.024-6.368 68.736 5.088 94.08 30.432 25.664 25.664 36.896 60.992 30.464 94.08-5.984 1.184-12.16 1.76-18.368 1.76-28.096 0-54.976-11.424-75.744-32.16-25.6-25.664-36.864-60.992-30.432-94.08zM384.01504 752a16 16 0 0 0 16 16c48.128 0 90.144-23.36 112-57.824C533.87104 744.64 575.88704 768 624.01504 768a16 16 0 1 0 0-32c-52.928 0-96-35.904-96-80a16 16 0 1 0-32 0c0 44.096-43.072 80-96 80a16 16 0 0 0-16 16z" fill="#e6e6e6" p-id="5898"></path></svg>