<?xml version="1.0" standalone="no"?><!DOCTYPE svg PUBLIC "-//W3C//DTD SVG 1.1//EN" "http://www.w3.org/Graphics/SVG/1.1/DTD/svg11.dtd"><svg t="1637214733278" class="icon" viewBox="0 0 1024 1024" version="1.1" xmlns="http://www.w3.org/2000/svg" p-id="7735" xmlns:xlink="http://www.w3.org/1999/xlink" width="128" height="128"><defs><style type="text/css"></style></defs><path d="M766.826519 460.191508c0 79.398396-28.596203 148.476599-74.861345 197.681239S581.797902 704.489351 511.217999 704.489351c-70.611854 0-134.513983 2.588036-180.747174-46.616604C284.205683 608.668107 255.60948 539.589904 255.60948 460.191508 255.60948 380.825063 252.254618 308.935166 298.51976 256.854931S440.638097 172.631923 511.217999 172.631923c70.611854 0 166.465048 32.174722 212.69824 84.223008C770.181381 308.935166 766.826519 380.825063 766.826519 460.191508z" fill="#e6e6e6" p-id="7736"></path><path d="M607.071194 416.929766m-31.951065 0a31.951065 31.951065 0 1 0 63.90213 0 31.951065 31.951065 0 1 0-63.90213 0Z" fill="#e6e6e6" p-id="7737"></path><path d="M415.364804 416.929766m-31.951065 0a31.951065 31.951065 0 1 0 63.90213 0 31.951065 31.951065 0 1 0-63.90213 0Z" fill="#e6e6e6" p-id="7738"></path><path d="M123.268169 259.794429c-50.834144 28.116937-93.424914 73.040134-119.944298 126.494266a31.951065 31.951065 0 0 0 6.0068 36.743724 196.946364 196.946364 0 0 0 107.451431 55.435098c7.476549 1.182189 15.496266 1.725358 23.803544 1.725358 27.286209 0 57.671672-6.102653 83.296426-14.633588 1.278043 82.21009 30.60912 158.12582 83.296426 214.199939 4.089736 4.345345 8.467032 7.764109 12.780426 11.470433 0.862679 25.464999 1.693406 60.643121 2.556086 96.33246 0.958532 39.427614 1.917064 78.823277 2.875595 104.70364 0.862679 23.611837 2.076819 55.914364 22.940865 83.10472C381.432773 1018.344662 443.865154 1021.987083 479.266934 1024l65.787243-0.063902c33.548618-1.949015 95.949048-5.591436 129.050351-48.565619 20.864045-27.158405 22.078186-59.492883 22.940865-83.072769 0.958532-25.880363 1.980966-66.29846 2.939498-106.716557 0.830728-34.79471 1.693406-69.0143 2.524134-94.383445 4.281443-3.674372 8.658739-7.093136 12.748475-11.438482 52.719257-56.074119 82.050335-131.989849 83.296426-214.199939 25.624754 8.530934 56.010217 14.633588 83.296427 14.633588 8.307277 0 16.326994-0.543168 23.803543-1.725358a196.946364 196.946364 0 0 0 107.451431-55.467049 31.951065 31.951065 0 0 0 6.006801-36.743724c-26.519384-53.422181-69.110153-98.345378-119.976249-126.462315-46.872212-25.880363-88.376646-40.354195-150.361712-32.366429-2.556085 0.319511-4.760709 1.533651-7.061185 2.39633a226.53305 226.53305 0 0 0-38.341278-31.280093c0.990483-0.319511 2.172672-0.543168 3.131204-0.862679 70.132588-23.196473 132.277409-85.053735 113.10677-171.03405a31.951065 31.951065 0 1 0-62.336528 13.930664c11.182873 50.163172-31.152288 83.328377-70.835511 96.428314-12.58872 4.153638-26.455482 7.348745-43.581252 10.064585-4.409247 0.702923-11.438481 1.278043-17.98845 1.917064-5.303877 0.447315-10.352145 0.89463-13.898713 1.341945a31.407897 31.407897 0 0 0-10.224341 3.354862c-31.535701-8.498983-62.783843-13.004083-89.526884-13.004084s-57.991183 4.473149-89.526884 13.004084a31.407897 31.407897 0 0 0-10.224341-3.354862 463.22654 463.22654 0 0 0-13.898713-1.373896c-6.549968-0.575119-13.579203-1.182189-18.0204-1.885113a274.363795 274.363795 0 0 1-43.517351-10.064585c-39.715174-13.099937-82.050335-46.233191-70.867462-96.428314A31.951065 31.951065 0 1 0 202.82632 26.647508c-19.170639 85.948365 42.974182 147.837578 113.10677 171.03405 0.990483 0.319511 2.140721 0.543168 3.099253 0.862679-12.716524 8.307277-24.186956 17.636988-34.50715 27.669622-54.955832-3.993883-115.439198 8.307277-161.257024 33.58057z m100.805609 137.13397c-26.647188 13.611154-72.816477 22.365745-97.163188 18.435765a130.935464 130.935464 0 0 1-54.220957-22.20599 229.184989 229.184989 0 0 1 81.507166-77.449382c25.145488-13.898713 56.233874-22.142088 87.513967-24.985733-12.652622 32.813744-16.614554 68.662839-17.636988 106.20534z m644.13347-81.219607a229.025234 229.025234 0 0 1 81.539118 77.449382 130.935464 130.935464 0 0 1-54.220958 22.20599c-24.570369 3.961932-70.516-4.824611-97.131237-18.435765-1.054385-38.021767-5.11217-74.286226-18.116254-107.483382 28.819861-0.127804 53.773642 7.380696 87.929331 26.263775z m-232.092536 468.306759c-0.958532 40.098587-1.917064 80.197173-2.875596 105.853878-0.766826 20.129171-1.980966 36.360312-9.808977 46.520751-13.419447 17.445281-47.41538 21.726724-80.261075 23.70769l-62.017017 0.063902c-34.730808-2.044868-68.69479-6.326311-82.114237-23.739641-7.859962-10.224341-9.074102-26.39158-9.808977-46.552702-0.958532-25.656705-1.885113-64.732858-2.811694-103.840961-0.511217-20.768192-0.990483-41.376629-1.5017-60.163855 35.976899 10.224341 73.391596 10.607754 106.333145 10.607754L511.217999 736.440415l19.969416 0.031952c32.941548 0 70.388196-0.383413 106.397046-10.639705-0.511217 18.212107-0.958532 38.213474-1.469749 58.182889zM322.387205 278.102389C362.805302 232.667974 451.884872 204.582988 511.217999 204.582988s148.444648 28.116937 188.830794 73.48745c35.210074 39.619321 35.050318 98.664889 34.858612 167.008216l-0.031951 15.112854c0 67.927964-23.484033 130.360345-66.170656 175.794759C636.689831 669.9822 593.46004 672.538286 531.187415 672.538286L511.217999 672.538286l-19.969415 0.031951c-62.304577 0-105.502416-2.556085-137.517384-36.58397C311.044577 590.583804 287.560545 528.119472 287.560545 460.191508l-0.031952-15.112854c-0.191706-68.375279-0.319511-127.356945 34.826661-166.976265z" fill="#e6e6e6" p-id="7739"></path><path d="M559.144597 880.220208a15.975532 15.975532 0 0 0 15.975532-15.975533v-31.951065a15.975532 15.975532 0 1 0-31.951065 0v31.951065a15.975532 15.975532 0 0 0 15.975533 15.975533zM463.291402 816.318078a15.975532 15.975532 0 0 0-15.975533 15.975532v31.951065a15.975532 15.975532 0 1 0 31.951065 0v-31.951065a15.975532 15.975532 0 0 0-15.975532-15.975532z" fill="#e6e6e6" p-id="7740"></path></svg>