<?xml version="1.0" standalone="no"?><!DOCTYPE svg PUBLIC "-//W3C//DTD SVG 1.1//EN" "http://www.w3.org/Graphics/SVG/1.1/DTD/svg11.dtd"><svg t="1637214668980" class="icon" viewBox="0 0 1024 1024" version="1.1" xmlns="http://www.w3.org/2000/svg" p-id="5452" xmlns:xlink="http://www.w3.org/1999/xlink" width="128" height="128"><defs><style type="text/css"></style></defs><path d="M432.1216 560a80 64 0 1 0 160 0 80 64 0 1 0-160 0Z" fill="#e6e6e6" p-id="5453"></path><path d="M760.6976 168.896a31.328 31.328 0 0 0-10.624-1.792c-19.648-19.968-41.44-37.632-66.208-51.264-44.896-24.736-86.848-40-128.224-46.752-45.824-7.488-89.472 1.184-126.144 11.84-66.56 19.296-117.888 47.744-156.32 86.336a30.976 30.976 0 0 0-9.6 1.632c-63.488 24.448-135.392 52.16-190.592 105.92C19.0016 327.36-20.8384 417.44 11.8016 500.256c18.08 45.824 52.736 76.832 86.24 106.848 7.36 6.592 14.72 13.12 21.792 19.84 22.976 21.696 60.224 64.224 51.84 105.408a32 32 0 0 0 55.36 27.52 305.664 305.664 0 0 0 61.888-111.456c15.872 38.624 25.696 76.384 29.12 112.256 1.984 20.864 3.328 42.496-0.096 59.584-1.312 6.496-3.52 12.672-5.632 18.88-4.416 12.896-9.376 27.52-9.92 44.96-1.024 28.576 11.168 54.592 31.744 67.936 10.016 6.528 21.888 9.952 34.304 9.952 15.776 0 31.712-5.44 44.832-15.392 23.04-17.44 32.96-41.312 41.6-62.4l3.328-7.68c16.192 11.296 34.56 17.76 53.92 17.76 19.488 0 37.92-6.528 54.176-17.92 0.992 2.4 2.016 4.64 3.04 7.104 8.704 21.088 18.56 44.96 41.6 62.4 23.552 17.76 56.448 20.224 79.168 5.44 20.576-13.344 32.768-39.36 31.776-67.84-0.576-17.536-5.536-32.16-9.92-45.056-2.144-6.208-4.352-12.384-5.664-18.88-3.424-17.088-2.08-38.72-0.128-59.552 3.456-35.808 13.248-73.472 29.056-111.936a305.536 305.536 0 0 0 61.952 111.872 32.032 32.032 0 0 0 55.36-27.52c-8.352-41.216 28.896-83.744 51.84-105.44 7.104-6.72 14.464-13.248 21.824-19.84 33.504-30.016 68.16-61.024 86.272-106.88 32.64-82.784-7.232-172.896-61.216-225.472-55.2-53.696-127.104-81.44-190.56-105.888z m-540.8 483.776c-12.288-24.32-31.04-48.544-56.128-72.192-7.488-7.104-15.264-14.08-23.04-21.056-29.248-26.176-56.896-50.88-69.376-82.624-21.76-55.136 8.736-119.584 46.272-156.16 26.88-26.144 59.584-45.152 94.208-61.184-0.768 1.728-1.76 3.2-2.496 4.96-27.008 64.224-32 138.88-14.08 210.176 8.256 32.96 22.592 59.168 38.208 83.136 0 1.536-0.416 2.976-0.16 4.544 4.704 27.456-0.448 59.36-13.44 90.4z m254.048 195.84c11.008-15.872 27.104-38.752 40.64-57.92 7.904 11.456 15.744 24.352 22.752 35.84 4.8 7.84 9.28 15.04 13.568 21.76a63.84 63.84 0 0 1-76.96 0.32z m292.992-390.272c-8.416 33.472-26.496 59.648-45.632 87.328-15.904 22.944-32.32 46.72-44.48 75.936-18.688 45.12-30.272 89.632-34.336 132.416-2.464 25.728-4.032 53.024 1.056 78.24 1.888 9.248 4.8 18.08 7.84 26.912 3.36 9.92 6.272 18.496 6.56 26.56a25.792 25.792 0 0 1-2.144 11.648 11.776 11.776 0 0 1-6.272-2.464c-9.12-6.912-14.656-20.256-21.024-35.744-5.12-12.32-10.88-26.304-19.68-39.136-5.12-7.552-10.784-16.864-16.832-26.784-17.344-28.48-36.992-60.736-59.616-79.232a31.904 31.904 0 0 0-46.336 6.24s-51.52 72.576-70.624 100.48c-8.832 12.864-14.592 26.848-19.68 39.168-6.368 15.488-11.904 28.832-21.056 35.744a12.16 12.16 0 0 1-5.92 2.464 22.208 22.208 0 0 1-2.464-11.712c0.32-8 3.2-16.544 6.56-26.464a215.04 215.04 0 0 0 7.84-26.912c5.088-25.248 3.52-52.544 1.056-78.272-4.064-42.752-15.648-87.296-34.336-132.416-12.16-29.248-28.576-52.992-44.48-75.936-19.136-27.68-37.216-53.856-45.632-87.328-14.56-57.92-10.656-118.24 11.04-169.728a255.136 255.136 0 0 1 34.88-59.904c31.36-39.488 78.496-67.936 144.096-86.944 22.112-6.432 46.016-12.384 71.104-12.384 9.024 0 17.824 0.736 26.912 2.24 34.08 5.536 69.248 18.496 107.648 39.648 45.824 25.216 81.408 65.536 102.912 116.608 21.664 51.488 25.6 111.776 11.04 169.728z m185.984 18.56c-12.512 31.744-40.128 56.448-69.408 82.624-7.776 7.008-15.552 13.952-23.04 21.056-25.056 23.648-43.84 47.872-56.096 72.192-12.992-31.04-18.144-62.944-13.44-90.4 0.32-1.792-0.16-3.488-0.16-5.248 15.584-24 29.92-50.176 38.208-83.2 17.92-71.296 12.928-145.92-14.08-210.144-0.608-1.44-1.472-2.656-2.112-4.064 34.496 16 67.04 34.976 93.824 61.024 37.536 36.576 68.032 101.024 46.304 156.16z" fill="#e6e6e6" p-id="5454"></path><path d="M512.1216 480c-52.928 0-96 35.904-96 80s43.072 80 96 80 96-35.904 96-80-43.072-80-96-80z m0 128c-35.296 0-64-21.536-64-48s28.704-48 64-48 64 21.536 64 48-28.704 48-64 48z" fill="#e6e6e6" p-id="5455"></path><path d="M416.1216 384m-32 0a32 32 0 1 0 64 0 32 32 0 1 0-64 0Z" fill="#e6e6e6" p-id="5456"></path><path d="M608.1216 384m-32 0a32 32 0 1 0 64 0 32 32 0 1 0-64 0Z" fill="#e6e6e6" p-id="5457"></path></svg>