<?xml version="1.0" standalone="no"?><!DOCTYPE svg PUBLIC "-//W3C//DTD SVG 1.1//EN" "http://www.w3.org/Graphics/SVG/1.1/DTD/svg11.dtd"><svg t="1637214646685" class="icon" viewBox="0 0 1024 1024" version="1.1" xmlns="http://www.w3.org/2000/svg" p-id="4687" xmlns:xlink="http://www.w3.org/1999/xlink" width="128" height="128"><defs><style type="text/css"></style></defs><path d="M446.17056 533.12a32 32 0 0 0-60.16 21.76c39.584 109.184 44.736 236.448 13.472 351.52-4.736 17.28-10.56 38.72-5.248 61.792 4.608 19.84 17.504 36.992 35.36 47.04 16.416 9.184 35.52 11.2 52.448 5.632a109.76 109.76 0 0 0 30.144-15.584c9.248 6.848 19.616 12.16 29.952 15.584 6.272 2.08 12.832 3.104 19.456 3.104a67.52 67.52 0 0 0 32.96-8.768 72.928 72.928 0 0 0 35.392-47.008c5.344-23.04-0.512-44.544-5.888-64.128-30.624-112.736-25.472-240 14.112-349.152a32 32 0 1 0-60.16-21.824c-44.64 123.04-50.24 260.768-15.04 390.176 3.104 11.392 6.336 23.168 4.608 30.496a10.048 10.048 0 0 1-5.28 6.336c-11.008-3.648-17.76-10.752-18.208-12.896a32 32 0 0 0-64 0c0 1.76-6.272 8.96-17.568 12.8-1.312-0.064-5.024-2.336-5.92-6.24-1.728-7.36 1.504-19.104 5.28-32.896 34.496-127.04 28.928-264.736-15.712-387.776zM347.73856 158.144a16 16 0 0 0-22.592-0.704C281.65856 198.272 256.50656 254.848 256.09056 312.608c-0.384 57.792 24 114.656 66.944 156a15.872 15.872 0 0 0 22.592-0.416 15.968 15.968 0 0 0-0.416-22.624C308.57056 410.272 287.77056 361.92 288.09056 312.832c0.32-49.056 21.824-97.184 58.944-132.096a16 16 0 0 0 0.704-22.592zM678.55456 468.16a15.936 15.936 0 0 0 22.592 0.448c42.944-41.344 67.328-98.208 66.944-156-0.416-57.76-25.6-114.336-69.056-155.2a15.968 15.968 0 1 0-21.888 23.36c37.12 34.88 58.592 83.008 58.944 132.064 0.32 49.056-20.48 97.44-57.12 132.736a15.968 15.968 0 0 0-0.416 22.624z" fill="#e6e6e6" p-id="4688"></path><path d="M5.08256 188.544c-9.44 24.64-3.904 52.064 1.92 75.456 25.856 108.992 96.64 211.52 194.24 281.344 11.04 7.936 22.4 15.52 33.536 22.048 15.648 9.632 31.84 18.336 48.416 26.016-23.264 94.88-74.08 181.856-144.8 247.072a32 32 0 0 0 43.392 47.04c86.912-80.16 147.2-189.216 169.728-307.104a32 32 0 0 0-19.744-35.808c-21.856-8.576-43.168-19.2-63.936-32.032a379.104 379.104 0 0 1-29.28-19.232C153.30656 432.32 91.61056 343.36 69.21056 248.864c-1.824-7.296-7.36-29.536-4.544-36.96 8.128-20.352 44.48-44.384 62.048-56.032A394.4 394.4 0 0 1 214.04256 112a177.088 177.088 0 0 1 66.24-9.376c21.984 1.408 40.352 6.72 54.56 15.808a32 32 0 0 0 40-4.448c43.936-44.48 127.936-61.856 200.16-41.248 29.792 8.16 55.552 22.496 74.464 41.376a32 32 0 0 0 39.872 4.32c14.208-9.12 32.48-14.4 54.368-15.776a171.776 171.776 0 0 1 66.432 9.376c31.104 11.072 60.48 25.792 87.488 43.904 17.44 11.52 53.76 35.584 61.728 55.488 3.008 7.872-2.56 30.112-4.48 37.824-22.304 94.112-84 183.072-169.376 244.16a431.168 431.168 0 0 1-93.216 51.2 32 32 0 0 0-19.616 35.776c22.56 117.888 82.816 226.944 169.728 307.104a31.936 31.936 0 0 0 45.216-1.824 32 32 0 0 0-1.824-45.216c-70.72-65.248-121.568-152.224-144.832-247.104a497.152 497.152 0 0 0 81.92-48c97.632-69.824 168.448-172.384 194.176-280.96 5.952-23.808 11.52-51.264 1.856-76.32-14.336-35.84-51.872-62.944-85.792-85.408a458.496 458.496 0 0 0-101.472-50.88 237.536 237.536 0 0 0-92.16-13.024 189.504 189.504 0 0 0-62.72 14.208A238.144 238.144 0 0 0 592.21856 11.168c-85.76-24.512-182.592-7.168-244.864 41.824a191.488 191.488 0 0 0-63.2-14.24 241.92 241.92 0 0 0-91.584 13.024 457.92 457.92 0 0 0-101.344 50.848C57.14656 125.12 19.61056 152.224 5.08256 188.544z" fill="#e6e6e6" p-id="4689"></path><path d="M384.09056 288m-32 0a32 32 0 1 0 64 0 32 32 0 1 0-64 0Z" fill="#e6e6e6" p-id="4690"></path><path d="M640.09056 288m-32 0a32 32 0 1 0 64 0 32 32 0 1 0-64 0Z" fill="#e6e6e6" p-id="4691"></path></svg>