<?xml version="1.0" standalone="no"?><!DOCTYPE svg PUBLIC "-//W3C//DTD SVG 1.1//EN" "http://www.w3.org/Graphics/SVG/1.1/DTD/svg11.dtd"><svg t="1637214772228" class="icon" viewBox="0 0 1024 1024" version="1.1" xmlns="http://www.w3.org/2000/svg" p-id="9467" xmlns:xlink="http://www.w3.org/1999/xlink" width="128" height="128"><defs><style type="text/css"></style></defs><path d="M133.763428 256.00696c-17.535841-15.039864-24.159781-38.65565-25.727767-61.151446-1.599986-22.495796 0.927992-45.21559-2.399978-67.519388C100.547729 93.000437 82.115896 62.056718 64.00406 32.00899c36.159672 11.391897 72.479343 22.879793 106.143038 39.839639C203.842793 88.808475 235.04251 111.720268 256.00232 142.087992L133.763428 256.00696zM890.236572 256.00696c17.567841-15.039864 24.159781-38.65565 25.727767-61.151446 1.599986-22.495796-0.927992-45.21559 2.399978-67.519388 5.087954-34.335689 23.519787-65.279408 41.631623-95.327136-36.159672 11.391897-72.479343 22.879793-106.143038 39.839639-33.695695 16.959846-64.863412 39.871639-85.855222 70.207364L890.236572 256.00696zM328.385664 503.620716c19.359825 19.359825 45.759585 27.007755 70.815358 23.583786a83.679242 83.679242 0 0 0-23.583786-70.815358 83.679242 83.679242 0 0 0-70.815358-23.583786 83.679242 83.679242 0 0 0 23.583786 70.815358zM695.614336 503.620716a83.679242 83.679242 0 0 1-70.815358 23.583786 83.679242 83.679242 0 0 1 23.583786-70.815358 83.679242 83.679242 0 0 1 70.815358-23.583786 83.679242 83.679242 0 0 1-23.583786 70.815358z" fill="#e6e6e6" p-id="9468"></path><path d="M975.995795 492.804814c0.447996 0 0.927992 0 1.375988-0.063999a15.999855 15.999855 0 0 0 14.623867-16.415852c-1.279988-42.207617-26.335761-82.335254-65.439407-106.367036a255.453685 255.453685 0 0 0-23.103791-85.215227 31.359716 31.359716 0 0 0 7.583932-4.41596c21.567805-18.463833 34.303689-47.263572 36.863666-83.231246 0.703994-10.079909 0.703994-20.191817 0.639994-30.303726-0.063999-12.383888-0.127999-24.095782 1.471987-34.783684 4.223962-28.415742 21.087809-56.415489 37.375661-83.487244A31.99971 31.99971 0 0 0 950.396027 1.481267c-36.799667 11.583895-74.815322 23.583786-110.974994 41.791621-42.783612 21.599804-75.647314 48.703559-97.727115 80.57527-0.319997 0.415996-0.319997 0.895992-0.575994 1.343987C675.35852 91.656449 596.639233 72.008627 512 72.008627s-163.35852 19.647822-229.117924 53.183518c-0.255998-0.447996-0.287997-0.959991-0.575994-1.343987-22.0798-31.871711-54.943502-58.975466-97.727115-80.57527C148.419295 25.033053 110.403639 13.065162 73.603973 1.481267a31.99971 31.99971 0 0 0-37.023665 47.039573c16.319852 27.071755 33.183699 55.039501 37.407661 83.519243 1.599986 10.655903 1.535986 22.367797 1.471987 34.751685-0.063999 10.111908-0.063999 20.223817 0.639994 30.335726 2.559977 35.935674 15.295861 64.735413 36.863666 83.199246a31.359716 31.359716 0 0 0 7.583932 4.41596 255.421685 255.421685 0 0 0-23.103791 85.215227c-39.103646 23.999783-64.127419 64.159419-65.439407 106.367036a15.999855 15.999855 0 0 0 31.839711 2.751975c1.247989-8.575922 6.815938-17.055845 14.879866-22.655794 6.847938-4.735957 15.679858-6.911937 24.671776-7.455933 1.375988 5.727948 2.335979 11.519896 4.095963 17.183845a17.151845 17.151845 0 0 0-4.895956 1.183989l-11.199898 5.311952c-14.431869 9.503914-24.063782 22.527796-27.039755 36.671667a15.999855 15.999855 0 0 0 31.295716 6.62394c1.215989-5.759948 6.079945-11.807893 11.231898-15.39186l8.959919-4.063963 2.783975-1.279989 0.159998-0.127999c27.935747 62.94343 80.671269 118.910922 153.918606 158.97456l3.039972 1.471986c49.119555 20.351816 85.471225 80.639269 95.99913 129.662825 3.935964 18.303834 4.863956 37.759658 5.855947 58.399471 0.415996 9.055918 0.863992 18.143836 1.567986 27.167754 2.23998 29.75973 7.67993 68.159382 29.855729 101.247082C431.552729 1005.536167 468.096398 1024 512 1024c42.623614 0 81.119265-19.423824 102.975067-51.999529 22.207799-33.0557 27.61575-71.487352 29.855729-101.247082 0.703994-9.023918 1.15199-18.079836 1.599986-27.167754 0.959991-20.607813 1.887983-40.095637 5.823947-58.399471 10.495905-48.863557 43.03961-107.231028 92.095165-127.582844l3.071972-1.471986c92.415162-48.703559 153.630608-123.710879 173.214431-207.166123 8.959919 0.543995 17.791839 2.719975 24.639776 7.487932 8.063927 5.56795 13.631876 14.079872 14.879866 22.623795a15.999855 15.999855 0 0 0 15.839856 13.727876zM89.091833 417.989492c2.527977-2.879974 5.50395-5.343952 8.319924-7.935928 0.191998 2.463978 0.319997 4.927955 0.575995 7.359933-2.943973 0.319997-5.983946-0.063999-8.895919 0.575995z m50.879539-225.373958c-0.639994-8.479923-0.575995-16.991846-0.511996-25.503768 0.063999-14.239871 0.127999-28.959738-2.14398-44.479597a183.678335 183.678335 0 0 0-8.767921-34.495688c9.279916 3.775966 18.399833 7.871929 27.199754 12.287889 32.319707 16.319852 56.639487 35.903675 72.575342 58.175473-29.183736 20.99181-54.399507 45.151591-74.783322 71.807349-9.471914-9.215916-12.735885-25.439769-13.599877-37.791658z m579.834745 405.852322c-75.263318 31.231717-117.150938 112.862977-130.110821 173.27843-5.055954 23.423788-6.143944 46.495579-7.231935 68.799377-0.415996 8.479923-0.799993 16.959846-1.439987 25.407769-2.431978 32.575705-8.383924 54.271508-19.199826 70.399362-9.91991 14.815866-28.575741 23.647786-49.823548 23.647786-22.527796 0-39.295644-7.967928-49.855548-23.679785-10.815902-16.095854-16.735848-37.791658-19.199826-70.399362-0.639994-8.447923-0.991991-16.895847-1.407987-25.37577-1.08799-22.303798-2.17598-45.375589-7.231935-68.799377-13.599877-63.359426-61.343444-145.214684-133.118793-175.038414C212.802711 548.324311 160.00319 471.781004 160.00319 392.005727c0-141.150721 157.918569-255.99768 351.99681-255.99768s351.99681 114.846959 351.99681 255.99768c0 81.599261-54.719504 159.198557-144.190693 206.462129z m166.878487-475.835687c-2.271979 15.519859-2.23998 30.239726-2.14398 44.479597 0.063999 8.511923 0.127999 17.023846-0.479996 25.471769-0.863992 12.383888-4.127963 28.607741-13.599877 37.823657a353.980792 353.980792 0 0 0-74.783322-71.807349c15.967855-22.271798 40.255635-41.855621 72.575342-58.175473 8.79992-4.41596 17.919838-8.479923 27.199754-12.287889a183.678335 183.678335 0 0 0-8.767921 34.495688z m39.359644 294.141334c0.223998-2.23998 0.351997-4.479959 0.511995-6.719939 2.879974 2.559977 5.823947 5.087954 8.319925 7.935928-2.879974-0.639994-5.855947-0.927992-8.83192-1.215989z" fill="#e6e6e6" p-id="9469"></path><path d="M943.996085 528.644489a15.999855 15.999855 0 0 0 15.679858-19.327825c-3.039972-14.143872-12.639885-27.199754-29.215735-37.887656l-9.055918-4.095963-9.407915 13.311879-3.839965 15.839857 6.815938 2.879974c7.263934 4.799957 12.15989 10.815902 13.375879 16.575849a15.999855 15.999855 0 0 0 15.647858 12.703885zM302.625897 416.965501a15.999855 15.999855 0 0 0-13.695875 13.695876A99.2951 99.2951 0 0 0 387.617127 544.00435c4.607958 0 9.183917-0.319997 13.759876-0.927992a15.999855 15.999855 0 0 0 13.695875-13.695876 99.199101 99.199101 0 0 0-28.159744-84.287236 100.095093 100.095093 0 0 0-84.287237-28.159744z m37.087664 75.327318a67.135392 67.135392 0 0 1-19.647822-44.1916 67.167391 67.167391 0 0 1 63.871422 63.807422 67.199391 67.199391 0 0 1-44.2236-19.615822zM721.374103 416.965501a100.159092 100.159092 0 0 0-84.287237 28.127745 99.199101 99.199101 0 0 0-28.159744 84.287236 15.999855 15.999855 0 0 0 13.727875 13.695876c4.543959 0.639994 9.119917 0.927992 13.727876 0.927992a99.2951 99.2951 0 0 0 98.687105-113.342973 15.999855 15.999855 0 0 0-13.695875-13.727875z m-37.087664 75.327318c-11.839893 11.839893-27.423751 18.71983-44.2236 19.615822a67.167391 67.167391 0 0 1 63.839422-63.807422 67.135392 67.135392 0 0 1-19.615822 44.1916z" fill="#e6e6e6" p-id="9470"></path></svg>