<?xml version="1.0" standalone="no"?><!DOCTYPE svg PUBLIC "-//W3C//DTD SVG 1.1//EN" "http://www.w3.org/Graphics/SVG/1.1/DTD/svg11.dtd"><svg t="1637214574748" class="icon" viewBox="0 0 1024 1024" version="1.1" xmlns="http://www.w3.org/2000/svg" p-id="3438" xmlns:xlink="http://www.w3.org/1999/xlink" width="128" height="128"><defs><style type="text/css"></style></defs><path d="M224 352m-48 0a48 48 0 1 0 96 0 48 48 0 1 0-96 0Z" fill="#e6e6e6" p-id="3439"></path><path d="M800 352m-48 0a48 48 0 1 0 96 0 48 48 0 1 0-96 0Z" fill="#e6e6e6" p-id="3440"></path><path d="M743.36 690.56c-127.584 82.016-335.136 82.016-462.72 0a16 16 0 1 0-17.28 26.88c68.544 44.096 158.592 66.144 248.64 66.144s180.096-22.048 248.64-66.144a16 16 0 1 0-17.28-26.88z" fill="#e6e6e6" p-id="3441"></path><path d="M800 96a222.592 222.592 0 0 0-188.32 102.976 719.68 719.68 0 0 0-199.36 0A222.592 222.592 0 0 0 224 96c-123.52 0-224 100.48-224 224 0 38.4 9.696 75.616 28.16 108.8C9.504 466.08 0 504.736 0 544c0 194.08 229.696 352 512 352s512-157.92 512-352c0-39.264-9.472-77.92-28.16-115.2A222.72 222.72 0 0 0 1024 320c0-123.52-100.48-224-224-224z m131.264 347.968c19.072 32.576 28.736 66.24 28.736 100.032 0 158.784-200.96 288-448 288S64 702.784 64 544c0-33.792 9.664-67.456 28.736-100.032a32 32 0 0 0-1.152-34.144A159.168 159.168 0 0 1 64 320c0-88.224 71.776-160 160-160a159.232 159.232 0 0 1 142.848 88.32 31.936 31.936 0 0 0 33.856 17.152 662.08 662.08 0 0 1 222.592 0 32 32 0 0 0 33.856-17.184A159.232 159.232 0 0 1 800 160c88.224 0 160 71.776 160 160a159.168 159.168 0 0 1-27.584 89.824 32 32 0 0 0-1.152 34.144z" fill="#e6e6e6" p-id="3442"></path><path d="M288 352c0-35.296-28.704-64-64-64s-64 28.704-64 64 28.704 64 64 64 64-28.704 64-64z m-64 32c-17.632 0-32-14.368-32-32s14.368-32 32-32 32 14.368 32 32-14.368 32-32 32zM800 288c-35.296 0-64 28.704-64 64s28.704 64 64 64 64-28.704 64-64-28.704-64-64-64z m0 96c-17.632 0-32-14.368-32-32s14.368-32 32-32 32 14.368 32 32-14.368 32-32 32z" fill="#e6e6e6" p-id="3443"></path><path d="M416 608m-32 0a32 32 0 1 0 64 0 32 32 0 1 0-64 0Z" fill="#e6e6e6" p-id="3444"></path><path d="M608 608m-32 0a32 32 0 1 0 64 0 32 32 0 1 0-64 0Z" fill="#e6e6e6" p-id="3445"></path></svg>