<?xml version="1.0" standalone="no"?><!DOCTYPE svg PUBLIC "-//W3C//DTD SVG 1.1//EN" "http://www.w3.org/Graphics/SVG/1.1/DTD/svg11.dtd"><svg t="1637214654851" class="icon" viewBox="0 0 1024 1024" version="1.1" xmlns="http://www.w3.org/2000/svg" p-id="4920" xmlns:xlink="http://www.w3.org/1999/xlink" width="128" height="128"><defs><style type="text/css"></style></defs><path d="M161.94166 624.344729c-18.558852 18.238871-36.477743 33.917901-69.755684 26.558356-46.077149-10.239366-67.515822-65.915921-57.916416-107.513347 0.63996-2.559842 1.279921-4.799703 2.239861-7.039565 10.879327 2.879822 22.078634 6.399604 32.957961 11.199307 27.838278 11.519287 55.676555 29.118198 77.435208 55.996536 5.439663 6.399604 10.559347 13.439168 15.03907 20.798713zM340.010642 78.074529C408.902379 33.597281 531.614786 6.878934 612.473783 20.574087c-25.406428 3.935756-35.965775 39.229573-22.718594 61.24421 13.215182 22.078634 41.05346 31.19807 66.74787 31.230068 25.69441 0 50.812856-7.167557 76.379274-9.759396a216.274618 216.274618 0 0 1 163.957855 53.404696c-20.158753-0.735954-40.957466-1.375915-59.644309 6.143619-18.686844 7.487537-34.74985 25.470424-33.405934 45.565181 1.215925 18.142877 15.99901 32.797971 32.318001 40.861472s34.525864 11.263303 51.612806 17.502917a154.454443 154.454443 0 0 1 92.954249 97.593961c-13.951137-3.39179-28.222254-6.847576-42.557367-5.599653-14.335113 1.279921-28.958208 8.127497-35.837783 20.766715-8.735459 16.095004-2.463848 36.701729 8.959446 51.036842 11.423293 14.271117 27.230315 24.318495 40.957466 36.477743a168.437578 168.437578 0 0 1 55.772549 121.272496c-30.462115-13.887141-68.955733-7.775519-93.626207 14.847081S863.978221 686.004913 845.963336 718.002934L863.978221 528.030688l-67.995792-178.804936L639.99208 208.050487l-228.145883-63.99604-50.236892-4.479723-21.598663-61.532193z" fill="#e6e6e6" p-id="4921"></path><path d="M85.274404 682.133153c7.839515 1.759891 15.51904 2.623838 22.910582 2.623838 37.98165 0 60.988226-22.654598 78.203161-39.645547 7.583531-7.583531 14.719089-14.719089 22.718595-19.838773 13.887141-8.959446 28.542234-17.406923 43.165329-25.822402 10.047378-5.759644 20.126755-11.551285 30.270127-17.726903 30.814093-19.198812 67.419828-42.045398 93.146236-75.003359 17.918891 20.414737 25.790404 49.724923 25.278436 74.747375-0.863947 43.389315-20.894707 86.61864-40.445497 123.352367-4.895697 9.279426-9.919386 18.462858-14.975074 27.678288-18.878832 34.493866-38.397624 70.171658-50.140897 109.913199-18.494856 62.396139-12.223244 123.384366 17.214935 167.381643a31.99802 31.99802 0 0 0 29.630166 14.079129c99.193862-9.599406 226.066012-28.318248 327.243752-88.538522 82.298908-49.052965 143.127144-107.705336 180.69282-174.197221 12.735212-22.398614 22.878584-46.589117 30.014143-71.579571 0.511968-1.695895 0.799951-3.519782 1.27992-5.247676 13.695153-26.750345 29.598169-56.444507 43.677298-69.339709a71.739561 71.739561 0 0 1 76.187286-12.095252 15.99901 15.99901 0 0 0 22.6226-14.847081 185.268537 185.268537 0 0 0-61.180215-132.919776c-4.767705-4.223739-9.759396-8.223491-14.719089-12.159247-9.183432-7.327547-17.822897-14.207121-24.318495-22.334618-7.359545-9.183432-12.799208-23.550543-7.391543-33.405933 3.615776-6.655588 12.703214-11.551285 23.166567-12.479228 11.839267-1.023937 24.830464 2.143867 37.341689 5.247675a16.095004 16.095004 0 0 0 19.102818-20.318743 171.253404 171.253404 0 0 0-102.77764-107.897324 332.843405 332.843405 0 0 0-21.054698-6.62359c-10.367359-3.007814-20.190751-5.855638-28.92621-10.207368-10.815331-5.311671-22.6226-15.35905-23.454548-27.550296-0.863947-12.799208 11.423293-24.862462 23.42255-29.662164 15.871018-6.399604 34.813846-5.66365 53.052718-4.991691a15.99901 15.99901 0 0 0 11.295301-27.902274 232.913588 232.913588 0 0 0-176.245095-57.436446c-10.33536 1.055935-20.606725 2.815826-30.846091 4.607715-15.19906 2.59184-29.502175 5.087685-43.773292 5.087685h-0.127992c-18.878832 0-42.717357-6.207616-53.084715-23.454549-4.383729-7.359545-4.607715-18.110879-0.543967-26.782343 1.599901-3.455786 5.311671-9.407418 12.031256-10.431354a15.99901 15.99901 0 0 0 0.191988-31.614044C535.678535-8.576109 416.6459 15.35841 342.410493 58.395747 317.836014 36.445105 282.83018 17.470279 236.945019 1.759251a32.094014 32.094014 0 0 0-32.733975 7.423541 32.094014 32.094014 0 0 0-9.599406 21.758653 87.674575 87.674575 0 0 0-32.893964 1.79189 31.934024 31.934024 0 0 0-20.478733 45.757168c2.59184 5.023689 5.471661 10.367359 8.447477 15.871018 23.934519 44.253262 40.765478 79.867058 21.886646 102.873635a579.644135 579.644135 0 0 0-80.15504 132.471803c-8.383481 18.846834-13.503164 37.917654-18.462858 56.41251-5.183679 19.262808-10.047378 37.50168-18.174876 52.988721-4.927695 9.599406-11.103313 18.686844-17.182936 27.838278-11.519287 17.214935-24.606477 36.765725-30.622106 57.084468a82.234912 82.234912 0 0 0-3.87176 12.159247c-7.583531 32.733975-1.151929 69.65969 17.150939 98.713892 15.487042 24.574479 38.557614 41.37344 65.019977 47.229078zM573.980165 33.149309l-0.063996 0.127992c-8.511473 18.174875-7.679525 40.477495 2.111869 56.796486 14.591097 24.382491 44.669236 38.94159 80.443023 39.005586 18.302868 0.927943 33.533925-2.815826 49.404943-5.567655 9.503412-1.663897 19.038822-3.327794 28.638228-4.287735a200.4036 200.4036 0 0 1 114.776898 23.518545c-6.015628 1.183927-12.095252 2.879822-18.046883 5.279673-27.262313 10.943323-45.117208 36.221759-43.421314 61.468197 1.471909 21.886646 16.862957 42.109394 41.149454 54.108652 11.327299 5.631652 22.974578 9.023442 34.237882 12.28724 6.399604 1.823887 12.76721 3.647774 18.974826 5.951631a138.839409 138.839409 0 0 1 71.771559 61.180215 89.082488 89.082488 0 0 0-17.214935-0.15999c-21.50267 1.887883-39.645547 12.735212-48.508998 29.054202-10.911325 20.030761-6.78358 46.973094 10.49535 68.667751 8.767458 10.943323 19.23081 19.326804 29.406181 27.390305 4.511721 3.583778 9.087438 7.199555 13.40717 11.071315 25.246438 22.398614 42.461373 53.948662 48.285012 87.290599-30.462115-4.895697-63.35608 4.127745-86.29866 25.05445-2.879822 2.655836-5.695648 6.399604-8.543471 9.791394 1.023937-19.454796 1.055935-39.165577-0.799951-59.388325a487.585831 487.585831 0 0 0-5.439663-37.405686 432.229256 432.229256 0 0 0-55.484567-146.230952 396.711453 396.711453 0 0 0-34.077891-48.764982l-2.367854-2.91182c-2.463848-3.103808-4.991691-6.239614-7.26355-8.73546a503.456849 503.456849 0 0 0-101.8177-89.178482 599.322917 599.322917 0 0 0-70.331649-39.741541c-60.412262-28.222254-127.896086-47.165082-198.483719-55.868543a123.032387 123.032387 0 0 0-13.855142-1.727893l-26.462363-2.335855a112.089064 112.089064 0 0 0-14.303115-26.302373c57.148464-31.230068 141.847223-51.22883 209.683026-49.436941zM90.810061 502.432272c7.135558-10.687339 14.527101-21.758654 20.734717-33.821907 11.327299-21.598664 17.374925-44.157268 23.230563-65.94792 4.479723-16.798961 8.735459-32.669979 15.231057-47.133083a516.256057 516.256057 0 0 1 71.195595-117.944703c25.982392-31.582046 26.462363-66.779868 17.470919-99.70583a31.99802 31.99802 0 0 0 42.397377-39.357565L278.414453 89.977793c26.622353 15.99901 41.021462 33.437931 42.333381 51.516812a31.99802 31.99802 0 0 0 30.462115 29.694163c6.207616 0.287982 12.703214 0.575964 19.134816 1.183926l29.342184 2.559842c2.559842 0.255984 4.927695 0.415974 9.183432 1.151929 65.915921 8.223491 126.840152 25.21444 181.076796 50.524874l1.247923 0.575964c21.98264 10.719337 42.621363 22.398614 61.308206 34.74985a440.228761 440.228761 0 0 1 89.242478 78.299155c1.791889 1.951879 3.455786 4.063749 5.087686 6.111622l2.815825 3.519782c10.623343 13.023194 20.254747 26.782343 28.702224 41.085458a367.913235 367.913235 0 0 1 47.51706 125.432239c2.079871 11.007319 3.519782 21.726656 4.671711 31.774034 3.903758 43.101333 0.031998 84.474773-11.711275 123.352367a263.27971 263.27971 0 0 1-24.254499 58.012411c-32.126012 56.764488-85.210728 107.513348-157.814236 150.806669-83.482834 49.692925-190.644204 68.091787-279.502705 77.659194-10.879327-26.750345-11.199307-61.180214-0.447973-97.465969 9.791394-33.181947 26.878337-64.348018 44.893223-97.305979 5.215677-9.53541 10.431355-19.07082 15.391047-28.478238 23.038574-43.261323 46.749107-95.130114 47.901036-152.054592 1.279921-66.235902-31.774034-125.624227-84.154792-151.254641a31.774034 31.774034 0 0 0-25.086448-1.311918 31.934024 31.934024 0 0 0-18.27087 17.182936c-14.975073 34.045893-54.172648 58.556377-88.410529 79.899057-9.407418 5.66365-19.038822 11.199307-28.638228 16.766962-15.647032 8.959446-31.294064 17.982887-45.917159 27.454301a146.870912 146.870912 0 0 0-19.358802 15.03907c-18.558852-26.718347-48.540997-46.621115-82.362904-54.396634a279.342716 279.342716 0 0 1 18.046883-29.630167z m40.637486 106.457413c-12.351236 11.039317-19.422798 13.567161-32.318001 10.751335-12.351236-2.75183-20.254747-11.775271-24.766467-18.878832A70.843617 70.843617 0 0 1 64.027718 563.036522c28.28625 6.14362 53.628682 23.422551 67.451827 45.885161z m-93.306227-65.275961l0.063996 0.63996-3.935756-0.895944 3.87176 0.255984z" fill="#e6e6e6" p-id="4922"></path><path d="M194.515644 397.25478a15.903016 15.903016 0 0 0 7.231553-1.727893c33.405933-16.894955 49.084963-53.116713 36.509741-84.250787a15.99901 15.99901 0 0 0-29.694163 11.967259c6.207616 15.35905-3.135806 34.557862-21.246685 43.709296a15.99901 15.99901 0 0 0 7.199554 30.302125zM394.407276 395.046916a15.99901 15.99901 0 0 0 27.742283 15.999011c35.261818-61.116218 33.725913-142.295195-3.839762-202.003502a15.99901 15.99901 0 1 0-27.070325 17.022947c31.390058 49.948909 32.669979 117.880706 3.199802 168.981544z" fill="#e6e6e6" p-id="4923"></path></svg>