<?xml version="1.0" standalone="no"?><!DOCTYPE svg PUBLIC "-//W3C//DTD SVG 1.1//EN" "http://www.w3.org/Graphics/SVG/1.1/DTD/svg11.dtd"><svg t="1637214637473" class="icon" viewBox="0 0 1024 1024" version="1.1" xmlns="http://www.w3.org/2000/svg" p-id="4458" xmlns:xlink="http://www.w3.org/1999/xlink" width="128" height="128"><defs><style type="text/css"></style></defs><path d="M638.918921 838.841631c-3.838805 23.672632-26.871636 40.627355-50.864169 45.10596-23.032831 4.478606-50.224368-2.239303-74.2169-1.279601h-3.838805c-23.992532-0.959701-51.184069 5.758208-74.2169 1.279601-23.992532-4.478606-47.025363-21.433329-50.864169-45.10596-2.559203-15.675121 3.518905-31.670143 3.838806-47.345264v-1.919403c47.985065-0.959701 101.088536-8.637312 123.161666-37.748251 0 0 59.821381 30.390541 124.121367 47.985065 1.279602 12.796017 5.118407 25.911935 2.879104 39.027853z" fill="#e6e6e6" p-id="4459"></path><path d="M353.343806 843.960037c5.726218 35.253027 36.532629 63.980086 76.328243 71.369787 15.03532 2.975074 33.909446 2.175323 52.783571 0.57582 7.67761-0.639801 15.291241-1.343582 22.61696-1.343581l4.926467 0.09597 8.765272-0.09597c7.35771 0 14.97134 0.671791 22.61696 1.343581 9.533033 0.799751 19.130046 1.599502 28.375169 1.599503 9.021192 0 16.954723-0.703781 24.152482-2.111343 40.051534-7.45368 70.857945-36.148749 76.520183-71.145856 2.495223-14.459499 0.447861-27.607407-1.215621-38.132132a144.019174 144.019174 0 0 1-1.343582-9.501042 93.091025 93.091025 0 0 0-0.799751-5.918158c-0.383881-15.13129 14.87537-32.693824 29.65477-49.712527 7.35771-8.445371 14.459499-16.698802 20.409647-25.016214l72.841328-102.560078c4.510596-6.238058 9.181142-12.284177 13.819699-18.298305 12.732037-16.538852 25.911935-33.589545 35.828848-54.447053 14.395519-30.422531 24.408403-58.605759 30.390541-85.797296 10.460744-45.169941 12.604077-91.363563 6.334029-137.173305-1.055671-7.869551-3.039054-15.291241-4.894477-22.71293l2.015373-2.495224c19.034076-22.904871 40.627355-48.880786 49.968447-84.133813 12.028256-45.457851-0.895721-92.291274-32.981734-119.322861-28.695069-24.216463-70.889936-31.414222-112.668932-19.321986-31.478202 9.149152-63.468246 28.247208-87.332818 50.864169a139.572558 139.572558 0 0 0-25.815965-2.783134c-36.084769 0.22393-67.594961 15.291241-95.394308 28.599099-19.897807 9.565023-38.803922 18.554225-57.326157 21.625269-18.554225-3.039054-37.42835-12.060246-57.326158-21.625269-27.831337-13.307858-59.30954-28.375168-95.586248-28.599099-8.445371 0-17.018703 1.119652-25.592035 2.751144-23.896562-22.58497-55.886605-41.715016-87.332818-50.832179-41.715016-12.124226-83.973863-4.926467-112.700921 19.353976C101.294256 116.058597 88.370279 162.89202 100.398535 208.317881c9.341093 35.285018 30.934372 61.260933 49.968447 84.165803l2.015373 2.463234c-1.855422 7.42169-3.838805 14.7794-4.862486 22.58497-6.302038 45.969692-4.158706 92.163314 6.238058 136.981365 6.078108 27.511437 16.059002 55.726655 30.486511 86.149186 9.916913 20.857508 23.032831 37.908201 35.796858 54.447053 4.638556 6.014128 9.309103 12.060246 13.723729 18.170345l73.065258 102.847988c5.822188 8.061491 12.796017 16.218952 20.057757 24.536363 14.61945 16.826763 29.75074 34.229346 29.878701 50.128398-0.09597 4.734526-0.959701 9.501043-1.759453 14.299549-1.823432 10.812635-4.030745 24.280443-1.663482 38.867902z m254.000942-10.236813c-1.279602 7.997511-12.572087 16.442882-25.432084 18.810145-10.876615 2.079353-23.064821 0.639801-35.093077-0.383881-9.501043-0.799751-18.970096-1.599502-28.055268-1.599502l-7.48567 0.159951-6.206069-0.127961c-9.085172 0-18.554225 0.767761-28.055267 1.599503-12.028256 0.991691-23.704622 2.559203-35.380988 0.3199-12.572087-2.335273-23.832582-10.748654-25.112184-18.810145-0.735771-4.254676 0.383881-11.004575 1.599502-18.138355 0.863731-5.214377 1.535522-10.748654 2.015373-16.794772 2.879104 0.22393 5.598258 1.087661 8.445371 1.087661 11.356465 0 22.648951-1.791442 33.429595-5.438307 9.852933-3.358955 18.586215-7.965521 27.287507-12.540097l22.616961-11.964276 22.84089 12.092236c8.477361 4.446616 17.210643 9.053182 27.031587 12.412137a104.927341 104.927341 0 0 0 42.066906 4.894476c0.19194 1.791442 0.15995 3.518905 0.543831 5.438308 0.415871 3.742835 0.959701 7.54965 1.599502 11.324475 1.087661 6.813879 2.079353 13.275868 1.311592 17.658504z m188.261404-702.565327c20.537608-5.918158 41.587056-3.294974 53.615312 6.813879 12.828007 10.812635 17.914424 33.013724 12.380147 53.999193-3.614875 13.627758-11.004575 25.688005-20.057757 37.844221a283.399792 283.399792 0 0 0-25.847955-31.958053 295.971879 295.971879 0 0 0-58.093918-49.264666 154.192008 154.192008 0 0 1 38.004171-17.434574zM182.325036 229.81519c-9.085172-12.156216-16.474872-24.216463-20.089748-37.844221-5.534277-20.985468-0.447861-43.186558 12.380147-53.999193 12.028256-10.108854 33.077705-12.732037 53.647302-6.813879 12.732037 3.710845 25.911935 9.916913 38.004172 17.466564a294.820237 294.820237 0 0 0-57.901978 49.008746c-10.108854 10.780645-18.554225 21.465319-26.039895 32.181983z m103.519779 346.292217a740.441538 740.441538 0 0 0-15.13129-20.089747c-11.196515-14.49149-21.721239-28.151238-28.695069-42.770688-12.316167-26.007905-20.761538-49.744517-25.911935-72.873318a314.462124 314.462124 0 0 1-5.182387-114.300424c1.023681-7.77358 2.687164-15.227261 4.990447-22.489001 0.19194-0.35189 0.25592-0.735771 0.44786-1.087661 6.781889-20.889498 19.066066-40.179494 38.899893-61.324913 17.242633-18.810145 35.572928-33.717505 54.575013-44.370189 17.434573-9.820943 34.421286-15.03532 48.944766-15.035321 21.817209 0.12796 44.3382 10.908605 68.138792 22.32905 25.080194 11.996266 50.992129 24.376413 81.222719 27.991288 2.495223 0.28791 5.054427 0.28791 7.549651 0 30.230591-3.614875 56.142526-15.995022 81.190729-27.991288 23.832582-11.420445 46.385562-22.20109 67.946852-22.32905 14.74741 0 31.734123 5.214377 49.264666 15.099301 18.906115 10.588704 37.23641 25.496064 54.702974 44.53014 19.705867 20.985468 31.894073 40.243474 38.707952 61.196952 0.15995 0.3199 0.22393 0.639801 0.41587 0.959701 2.303283 7.29373 3.966765 14.81139 5.022437 22.680941a314.814014 314.814014 0 0 1-5.342337 114.492364c-5.022437 22.776911-13.435818 46.513523-25.783975 72.521428-6.973829 14.61945-17.498554 28.279198-28.695068 42.770688-5.118407 6.589949-10.172834 13.211888-15.227261 20.217707l-72.873318 102.592068c-4.798506 6.685919-10.620694 13.339848-16.570842 20.185717-16.059002 18.458255-34.997107 40.499395-42.226857 67.722921a73.225209 73.225209 0 0 1-34.165366-2.655173c-7.45368-2.495223-14.71542-6.334029-22.584971-10.492734l-30.07064-15.899052a16.154972 16.154972 0 0 0-14.93935 0l-30.326561 15.995022c-7.67761 4.062735-14.90736 7.901541-22.39303 10.396764a73.193219 73.193219 0 0 1-34.325317 2.591193c-7.35771-27.511437-26.231835-49.584567-42.226857-67.978841-5.918158-6.781889-11.708356-13.371838-16.314922-19.769847l-73.033268-102.815998z" fill="#e6e6e6" p-id="4460"></path><path d="M416.940012 415.933261a63.980086 63.980086 0 1 0-127.960173 0 63.980086 63.980086 0 0 0 127.960173 0z m-63.980087 31.990043a32.022033 32.022033 0 0 1 0-63.980086 32.022033 32.022033 0 0 1 0 63.980086zM672.860356 479.913347a63.980086 63.980086 0 1 0 0-127.960172 63.980086 63.980086 0 0 0 0 127.960172z m0-95.970129c17.658504 0 31.990043 14.363529 31.990044 31.990043s-14.331539 31.990043-31.990044 31.990043a31.990043 31.990043 0 0 1 0-63.980086zM445.21921 676.492162c13.435818 14.49149 30.262581 24.632333 43.410488 31.830093a48.592875 48.592875 0 0 0 46.609493 0c13.115918-7.19776 29.91069-17.338603 43.378498-31.830093a111.64525 111.64525 0 0 0 24.696314-106.622814 15.963032 15.963032 0 1 0-30.614472 9.277113c7.901541 25.911935 1.023681 55.598695-17.498553 75.560481-10.332784 11.100545-23.672632 19.130046-35.317008 25.528055a16.634822 16.634822 0 0 1-15.899051 0c-11.676366-6.398009-25.016214-14.427509-35.348998-25.528055a79.079387 79.079387 0 0 1-17.498553-75.528491 15.995022 15.995022 0 0 0-30.614472-9.309103 111.64525 111.64525 0 0 0 24.696314 106.622814zM136.451314 850.517996c9.117162 4.478606 18.362285 8.797262 27.575417 13.115918 27.351487 12.668057 53.199442 24.664323 76.520183 41.842976 33.973426 25.048204 55.982575 58.893669 60.301231 92.899085a15.995022 15.995022 0 0 0 23.288752 12.124227c30.838402-16.059002 70.090184-12.156216 97.889531 9.788953a15.899051 15.899051 0 0 0 22.489001-2.623184 15.995022 15.995022 0 0 0-2.623184-22.45701 123.033706 123.033706 0 0 0-113.372713-21.049448c-13.115918-47.121333-47.825114-78.823466-69.002522-94.402617-25.911935-19.098056-54.383073-32.373924-81.990481-45.169941-9.021192-4.158706-18.074374-8.381391-26.967606-12.764027-29.52681-14.52348-66.347349-35.508948-89.444161-69.418394-26.391786-38.771932-35.380988-95.490279-24.664323-155.63156 9.916913-55.598695 34.101386-107.710475 57.518097-158.126783a15.995022 15.995022 0 0 0-29.014969-13.435818C40.705115 477.450114 15.560941 531.481296 4.940247 591.174717c-12.156216 68.298742-1.343582 133.62241 29.75074 179.208221 27.319497 40.115514 68.714613 63.916106 101.728337 80.135058zM575.898536 1023.74408c3.518905 0 7.005819-1.119652 9.916913-3.454925 27.799347-21.94517 67.179091-25.847955 97.889532-9.788953a15.995022 15.995022 0 0 0 23.288751-12.156217c4.318656-33.973426 26.327805-67.818891 60.301232-92.867095 23.320741-17.178653 49.168696-29.174919 76.520183-41.874966 9.213132-4.286666 18.458255-8.573332 27.575417-13.083928 33.045715-16.218952 74.44083-40.019544 101.760327-80.103068 31.094322-45.617801 41.906956-110.941469 29.75074-179.240211-10.620694-59.69342-35.764868-113.724603-60.013321-165.964344a15.995022 15.995022 0 0 0-29.014969 13.435818c23.416712 50.416308 47.633174 102.528088 57.518098 158.126783 10.716664 60.141281 1.727462 116.859627-24.664324 155.63156-23.096811 33.909446-59.917351 54.894914-89.44416 69.418394-8.893232 4.382636-17.914424 8.573332-26.967606 12.764027-27.575417 12.796017-56.110536 26.071885-81.990481 45.169941-21.177409 15.579151-55.854615 47.281284-69.002523 94.370627a122.841766 122.841766 0 0 0-113.372713 21.081438A15.995022 15.995022 0 0 0 575.898536 1023.74408zM67.896651 313.437163a16.027012 16.027012 0 0 0 25.783975-18.938106C58.875459 247.153793 28.037058 200.640271 32.515664 152.527246c3.998755-42.962628 38.132131-83.909883 87.012917-104.319531 55.342775-23.096811 114.780275-17.306613 154.863799-8.381391 54.862924 12.156216 106.366893 36.78855 150.353202 58.925659a15.995022 15.995022 0 1 0 14.39552-28.599098c-45.745762-22.968851-99.361074-48.624866-157.806883-61.580833C236.708109-1.344861 170.264789-7.61491 107.244404 18.680906 47.550984 43.601149 5.739998 94.977158 0.653581 149.520182c-5.502287 59.34153 28.663079 111.38933 67.21108 163.916981zM1023.183318 149.552172C1018.096902 94.977158 976.285915 43.569159 916.592495 18.680906c-63.052375-26.327805-129.495694-20.025767-174.089815-10.108854-58.445809 12.987957-112.093111 38.611982-157.806882 61.580833a15.995022 15.995022 0 0 0 14.395519 28.599098c43.986309-22.13711 95.490279-46.769443 150.353203-58.925659 40.115514-8.925222 99.521024-14.68343 154.831808 8.381391 48.912776 20.409647 83.046152 61.356903 87.044907 104.287541 4.478606 48.145015-26.359796 94.658538-61.164962 142.035791a15.995022 15.995022 0 0 0 25.815965 18.874126c38.548002-52.463671 72.713368-104.543461 67.21108-163.853001z" fill="#e6e6e6" p-id="4461"></path></svg>