<?xml version="1.0" standalone="no"?><!DOCTYPE svg PUBLIC "-//W3C//DTD SVG 1.1//EN" "http://www.w3.org/Graphics/SVG/1.1/DTD/svg11.dtd"><svg t="1637214628180" class="icon" viewBox="0 0 1024 1024" version="1.1" xmlns="http://www.w3.org/2000/svg" p-id="4229" xmlns:xlink="http://www.w3.org/1999/xlink" width="128" height="128"><defs><style type="text/css"></style></defs><path d="M393.376 112a158.976 158.976 0 0 0-68.16-96 253.056 253.056 0 0 1 131.072 38.112c9.376 5.856 18.656 12.608 24.256 22.144 5.632 9.504 6.752 22.4 0.128 31.232l-7.296 13.024c75.968-89.216 188-125.28 288-92.704-31.68 4.544-63.968 9.312-92.8 26.56-28.864 17.216-54.176 49.44-59.136 89.632M832 704c0 176.736-143.264 288-320 288S192 880.736 192 704s143.264-256 320-256 320 79.264 320 256z" fill="#e6e6e6" p-id="4230"></path><path d="M928 441.92c0-81.984-60.416-148.576-136.064-153.056-20-80.288-77.184-141.632-158.304-171.872a111.68 111.68 0 0 1 43.136-48.896c26.4-15.744 57.152-20.16 86.88-24.448a16 16 0 0 0 2.688-31.04c-90.752-29.536-191.872-5.504-269.12 61.216a50.08 50.08 0 0 0-2.88-5.696c-7.52-12.736-19.168-21.12-29.6-27.584A267.52 267.52 0 0 0 325.344 0c-7.072 0.512-13.408 4.608-15.456 11.424a16 16 0 0 0 6.72 18.048 142.4 142.4 0 0 1 61.184 86.208 15.936 15.936 0 0 0 2.496 5.408c-75.744 31.456-129.088 90.88-148.224 167.776C156.416 293.344 96 359.904 96 441.888c0 64.096 34.4 121.088 85.568 149.664C167.616 625.088 160 662.624 160 704c0 185.408 148.032 320 352 320s352-134.592 352-320c0-41.376-7.616-78.912-21.568-112.448 51.2-28.576 85.568-85.568 85.568-149.664zM676.096 32.384c-5.312 2.4-10.56 5.12-15.712 8.224a140.128 140.128 0 0 0-57.376 66.56 359.68 359.68 0 0 0-82.432-10.88c45.888-38.784 100.576-61.216 155.52-63.904z m-302.72 5.12c26.336 5.76 51.808 16 74.432 30.144 7.136 4.448 14.944 9.92 18.944 16.704 2.656 4.48 2.976 9.984 0.16 14.528-20.288 2.4-39.616 6.4-57.92 11.936-0.032-0.864 0.128-1.696-0.064-2.56a173.888 173.888 0 0 0-35.584-70.784zM512 160c111.488 0 224 59.904 224 193.696a226.24 226.24 0 0 1-25.184 102.912C656.576 430.4 589.664 416 512 416c-77.76 0-144.704 14.368-198.912 40.672A225.632 225.632 0 0 1 288 353.696C288 219.904 400.512 160 512 160zM128 441.92c0-62.016 42.912-112.8 98.016-120.384A277.792 277.792 0 0 0 224 353.696c0 48.192 12.352 94.688 34.784 136.64a252 252 0 0 0-63.2 72.576C155.104 539.616 128 493.632 128 441.888zM512 960c-169.568 0-288-105.28-288-256 0-207.84 220.448-224 288-224s288 16.16 288 224c0 150.72-118.432 256-288 256z m316.416-397.12a252.032 252.032 0 0 0-63.168-72.544A290.144 290.144 0 0 0 800 353.696c0-11.008-0.8-21.664-2.016-32.16C853.088 329.12 896 379.904 896 441.92c0 51.744-27.104 97.728-67.584 121.024z" fill="#e6e6e6" p-id="4231"></path><path d="M675.264 774.304C631.328 832.16 573.312 864 512 864s-119.328-31.84-163.264-89.696a16 16 0 0 0-25.472 19.392C373.44 859.648 440.448 896 512 896s138.592-36.352 188.736-102.304a16 16 0 0 0-25.472-19.392z" fill="#e6e6e6" p-id="4232"></path><path d="M608 352m-32 0a32 32 0 1 0 64 0 32 32 0 1 0-64 0Z" fill="#e6e6e6" p-id="4233"></path><path d="M416 352m-32 0a32 32 0 1 0 64 0 32 32 0 1 0-64 0Z" fill="#e6e6e6" p-id="4234"></path></svg>