<?xml version="1.0" standalone="no"?><!DOCTYPE svg PUBLIC "-//W3C//DTD SVG 1.1//EN" "http://www.w3.org/Graphics/SVG/1.1/DTD/svg11.dtd"><svg t="1637302830587" class="icon" viewBox="0 0 1024 1024" version="1.1" xmlns="http://www.w3.org/2000/svg" p-id="1521" xmlns:xlink="http://www.w3.org/1999/xlink" width="128" height="128"><defs><style type="text/css"></style></defs><path d="M827.968 509.984a192.032 192.032 0 1 0-212.896-241.856s150.88 53.824 212.896 241.856zM195.328 509.888A192.032 192.032 0 1 1 409.6 270.592s-170.88 75.168-214.24 239.296z" fill="#e6e6e6" p-id="1522"></path><path d="M168.384 536.928c-0.064 1.92-0.384 3.808-0.384 5.76 0 118.912 142.976 327.744 239.36 410.496C436.544 978.208 473.696 992 512 992s75.456-13.76 104.64-38.816c96.384-82.752 239.36-291.584 239.36-410.496 0-1.952-0.32-3.84-0.384-5.76C953.056 511.808 1024 422.464 1024 320c0-123.52-100.48-224-224-224-91.584 0-173.12 56.64-206.976 140.032C565.76 228.384 538.432 224 512 224c-26.4 0-53.696 4.384-80.896 12A223.872 223.872 0 0 0 224 96c-123.52 0-224 100.48-224 224 0 102.368 70.976 191.84 168.384 216.928zM800 160c88.224 0 160 71.776 160 160 0 71.04-47.808 132.864-114.176 152.864-26.816-93.952-104.608-171.84-193.184-214.24A160.32 160.32 0 0 1 800 160z m-288 128c123.424 0 280 119.904 280 254.656 0 88.8-124.288 282.304-217.056 361.952-35.136 30.176-90.752 30.176-125.888 0-92.8-79.648-217.056-273.152-217.056-361.92C232 407.904 388.576 288 512 288zM224 160a159.936 159.936 0 0 1 147.424 98.56c-88.608 42.4-166.4 120.32-193.28 214.272C111.872 452.832 64 390.912 64 320c0-88.224 71.776-160 160-160z" fill="#e6e6e6" p-id="1523"></path><path d="M608 688a48 32 90 1 0 64 0 48 32 90 1 0-64 0Z" fill="#e6e6e6" p-id="1524"></path><path d="M352 688a48 32 90 1 0 64 0 48 32 90 1 0-64 0Z" fill="#e6e6e6" p-id="1525"></path><path d="M512 864c23.84 0 45.728-14.048 61.6-39.552a16 16 0 0 0-27.2-16.896c-19.616 31.52-49.184 31.52-68.8 0a16.032 16.032 0 0 0-27.2 16.896C466.272 849.952 488.16 864 512 864z" fill="#e6e6e6" p-id="1526"></path></svg>