<?xml version="1.0" standalone="no"?><!DOCTYPE svg PUBLIC "-//W3C//DTD SVG 1.1//EN" "http://www.w3.org/Graphics/SVG/1.1/DTD/svg11.dtd"><svg t="1637214690877" class="icon" viewBox="0 0 1024 1024" version="1.1" xmlns="http://www.w3.org/2000/svg" p-id="6144" xmlns:xlink="http://www.w3.org/1999/xlink" width="128" height="128"><defs><style type="text/css"></style></defs><path d="M512 736m-144 0a144 144 0 1 0 288 0 144 144 0 1 0-288 0Z" fill="#e6e6e6" p-id="6145"></path><path d="M352 448m-64 0a64 64 0 1 0 128 0 64 64 0 1 0-128 0Z" fill="#e6e6e6" p-id="6146"></path><path d="M672 448m-64 0a64 64 0 1 0 128 0 64 64 0 1 0-128 0Z" fill="#e6e6e6" p-id="6147"></path><path d="M512 575.936c-88.224 0-160 71.808-160 160.064s71.776 160.064 160 160.064 160-71.808 160-160.064-71.776-160.064-160-160.064z m0 288.128c-70.592 0-128-57.44-128-128.064s57.408-128.064 128-128.064 128 57.44 128 128.064-57.408 128.064-128 128.064zM416 448a64 64 0 1 0-128 0 64 64 0 0 0 128 0z m-96 0c0-17.632 14.368-32 32-32s32 14.368 32 32-14.368 32-32 32-32-14.368-32-32zM672 384a64 64 0 1 0 0 128 64 64 0 0 0 0-128z m0 96a32.032 32.032 0 0 1 0-64 32.032 32.032 0 0 1 0 64z" fill="#e6e6e6" p-id="6148"></path><path d="M448 736m-32 0a32 32 0 1 0 64 0 32 32 0 1 0-64 0Z" fill="#e6e6e6" p-id="6149"></path><path d="M576 736m-32 0a32 32 0 1 0 64 0 32 32 0 1 0-64 0Z" fill="#e6e6e6" p-id="6150"></path><path d="M1002.464 132.48a31.936 31.936 0 0 0-14.944-14.944A222.688 222.688 0 0 0 891.456 96c-64.544 0-128.864 27.328-176.512 74.976a249.376 249.376 0 0 0-24.96 29.216c-111.104-52.736-244.864-52.736-356 0a250.88 250.88 0 0 0-24.96-29.248C261.44 123.328 197.12 96 132.576 96a222.688 222.688 0 0 0-96.064 21.536 31.936 31.936 0 0 0-14.944 14.944c-42.592 88.48-21.12 198.016 53.44 272.576 13.12 13.152 27.84 24.864 43.776 34.976A413.44 413.44 0 0 0 96 576c0 229.376 186.624 416 416 416s416-186.624 416-416c0-46.72-7.648-92.32-22.752-135.968a254.816 254.816 0 0 0 43.808-34.976c74.56-74.56 96-184.096 53.408-272.576z m-98.656 227.296a195.328 195.328 0 0 1-52.48 37.184 32 32 0 0 0-15.36 41.28C854.624 481.92 864 528.256 864 576c0 194.08-157.92 352-352 352S160 770.08 160 576c0-47.744 9.408-94.08 28-137.76a32 32 0 0 0-15.36-41.28 195.648 195.648 0 0 1-52.448-37.152c-52.352-52.416-69.92-127.04-45.536-189.12 60.352-23.68 138.144-5.44 189.12 45.504 11.936 11.936 22.208 25.6 31.456 41.696 8.736 15.264 28.16 20.576 43.52 11.936 105.696-59.936 240.8-59.936 346.464 0a32 32 0 0 0 43.552-11.936c9.248-16.128 19.52-29.76 31.424-41.696 50.752-50.72 128.416-69.12 189.152-45.504 24.384 62.08 6.816 136.736-45.536 189.12z" fill="#e6e6e6" p-id="6151"></path></svg>