<?xml version="1.0" standalone="no"?><!DOCTYPE svg PUBLIC "-//W3C//DTD SVG 1.1//EN" "http://www.w3.org/Graphics/SVG/1.1/DTD/svg11.dtd"><svg t="1637214779452" class="icon" viewBox="0 0 1024 1024" version="1.1" xmlns="http://www.w3.org/2000/svg" p-id="9712" xmlns:xlink="http://www.w3.org/1999/xlink" width="128" height="128"><defs><style type="text/css"></style></defs><path d="M263.264 479.36c-25.44-54.72-43.072-113.152-54.528-172.288a915.872 915.872 0 0 1-15.36-128.096c-2.048-40.128-5.44-82.016 20.896-115.584 2.016-2.56 4.16-5.088 6.464-7.424 21.376-21.952 56.704-31.424 83.84-17.28 21.056 11.04 33.888 34.016 38.592 57.44 5.44 27.168 2.304 56.608-0.32 83.936-8.448 88.8-9.792 176.64 0 264.608l-79.584 34.656zM760.608 479.616c25.504-54.752 43.2-113.28 54.656-172.544 8.192-42.24 13.216-85.12 15.36-128.096 2.048-40.128 5.44-82.016-20.896-115.584a92.384 92.384 0 0 0-6.464-7.424c-21.408-21.952-56.736-31.424-83.84-17.28-21.056 11.04-33.888 34.016-38.592 57.44-5.44 27.168-2.304 56.608 0.32 83.936 8.32 87.68 9.76 174.432 0.352 261.28l79.104 38.272z" fill="#e6e6e6" p-id="9713"></path><path d="M384 662.016m-32 0a32 32 0 1 0 64 0 32 32 0 1 0-64 0Z" fill="#e6e6e6" p-id="9714"></path><path d="M640 662.016m-32 0a32 32 0 1 0 64 0 32 32 0 1 0-64 0Z" fill="#e6e6e6" p-id="9715"></path><path d="M96 705.696C96 881.216 282.624 1024 512 1024s416-142.784 416-318.304c0-90.944-50.368-172.896-130.56-230.976a788.224 788.224 0 0 0 49.248-161.6c8.32-43.04 13.696-87.616 15.936-132.544l0.256-5.12c2.144-42.304 4.608-90.24-27.936-131.808a119.2 119.2 0 0 0-8.768-9.984c-32.416-33.376-83.616-43.2-121.6-23.296-27.84 14.56-47.936 43.52-55.104 79.424-6.176 30.72-3.168 62.176-0.544 89.92l0.352 3.36c7.68 80.48 8.352 153.728 2.944 223.296A528.032 528.032 0 0 0 512 387.36c-49.28 0-96.32 6.944-140.192 19.008-5.44-69.664-4.736-142.944 2.912-223.296l0.32-3.36c2.656-27.744 5.664-59.2-0.512-89.888C367.36 53.888 347.264 24.96 319.392 10.368c-37.952-19.872-89.056-10.112-121.408 23.136-3.2 3.2-6.144 6.592-8.928 10.144-32.544 41.536-30.08 89.504-27.936 131.776l0.256 5.184c2.24 44.896 7.616 89.472 15.936 132.544a788.288 788.288 0 0 0 49.28 161.6C146.336 532.8 96 614.72 96 705.696zM712.224 102.4c3.264-16.416 11.712-29.92 22.08-35.328 13.056-6.816 33.28-1.856 46.176 11.36 1.472 1.504 2.816 3.04 4.096 4.704 17.792 22.72 16.192 53.44 14.4 89.024l-0.288 5.216a890.304 890.304 0 0 1-14.816 123.584 734.496 734.496 0 0 1-41.536 139.872c-8.96-4.576-18.24-8.8-27.648-12.864 7.232-78.24 6.912-160.416-1.728-250.944l-0.32-3.392c-2.336-24.48-4.736-49.792-0.416-71.232zM225.28 177.376l-0.288-5.216c-1.792-35.584-3.392-66.336 14.4-89.024 1.28-1.664 2.624-3.2 4.256-4.864 12.768-13.056 32.992-18.08 46.048-11.2 10.336 5.408 18.784 18.912 22.08 35.36 4.288 21.408 1.888 46.72-0.48 71.2l-0.32 3.392c-8.64 90.4-8.928 172.608-1.632 250.912-9.44 4.064-18.72 8.32-27.68 12.896a730.688 730.688 0 0 1-41.6-139.84 891.424 891.424 0 0 1-14.784-123.616zM512 451.36c194.08 0 352 114.08 352 254.336S706.08 960 512 960 160 845.92 160 705.696s157.92-254.336 352-254.336z" fill="#e6e6e6" p-id="9716"></path><path d="M408.512 837.568a77.6 77.6 0 0 0 103.488 6.176 77.6 77.6 0 0 0 103.488-6.176 16 16 0 1 0-22.624-22.624c-15.008 15.04-39.136 16.416-56.928 5.76A31.552 31.552 0 0 0 544 800v-32a32 32 0 1 0-64 0v32c0 8 3.2 15.04 8.064 20.672-17.792 10.688-41.92 9.28-56.96-5.76a16 16 0 1 0-22.592 22.656z" fill="#e6e6e6" p-id="9717"></path></svg>