<?xml version="1.0" standalone="no"?><!DOCTYPE svg PUBLIC "-//W3C//DTD SVG 1.1//EN" "http://www.w3.org/Graphics/SVG/1.1/DTD/svg11.dtd"><svg t="1637214523465" class="icon" viewBox="0 0 1024 1024" version="1.1" xmlns="http://www.w3.org/2000/svg" p-id="2202" xmlns:xlink="http://www.w3.org/1999/xlink" width="128" height="128"><defs><style type="text/css"></style></defs><path d="M32.036966 630.539155L186.753664 479.88469S238.60311 627.820338 223.953482 639.81512c-14.649627 11.994782-191.916516-9.275965-191.916516-9.275965z" fill="#e6e6e6" p-id="2203"></path><path d="M383.883913 511.806804m-31.986086 0a31.986086 31.986086 0 1 0 63.972172 0 31.986086 31.986086 0 1 0-63.972172 0Z" fill="#e6e6e6" p-id="2204"></path><path d="M708.062895 460.117289c-74.431622-58.438579-140.290973-91.224317-207.269838-103.155128-91.160345-16.248932-192.556238 6.525162-285.69972 64.100117-84.571212 52.233279-151.262201 124.617791-207.109908 188.398047a31.986086 31.986086 0 0 0 25.396953 53.03293c60.197814-2.558887 124.841694-4.893871 187.982227 1.183486-0.57575 2.430943-1.47136 4.733941-1.503346 7.356799-1.279443 59.110287 0.383833 117.388936 4.957844 173.268629 0.511777 6.173315 0.89561 12.858407 1.279443 19.831373 2.494915 45.388256 5.917426 107.505235 50.218155 142.018222a79.005633 79.005633 0 0 0 49.066656 17.592347 79.965215 79.965215 0 0 0 13.434156-1.183485c44.300729-7.612688 75.551135-49.898294 86.938182-67.778516a225.821768 225.821768 0 0 0 31.570267-80.157132c27.124201 4.222163 58.214677-1.599304 87.801806-17.016598 29.74706-15.513252 56.647358-40.174524 79.997202-73.248137a257.551965 257.551965 0 0 0 31.506294-58.91837c4.062233-11.003214 7.3568-22.358274 9.851715-33.713335a31.986086 31.986086 0 0 0-62.500812-13.658059 189.933379 189.933379 0 0 1-7.3568 25.269008 193.227946 193.227946 0 0 1-23.797648 44.140799c-17.400431 24.693258-36.656055 42.669439-57.255094 53.416764-17.560361 9.116035-42.029717 15.129419-57.031192 7.996521a58.086732 58.086732 0 0 1-4.350107-2.271012 54.696207 54.696207 0 0 0-2.590873-4.605996 31.986086 31.986086 0 1 0-58.406593 10.61938c-1.503346 7.228855-1.31143 15.993043 3.454497 25.141064l-0.223903 5.021816-0.191916 4.158191c-0.319861 7.900563-1.599304 16.408862-3.806344 25.300994a164.664371 164.664371 0 0 1-20.59904 48.139059c-13.338198 20.886914-31.346364 36.975915-43.852924 39.118984-3.230595 0.543763-6.845022 0.447805-12.314643-3.806345-21.366705-16.632765-23.765662-60.133842-25.716813-95.094634a872.100636 872.100636 0 0 0-1.343416-21.558622 1612.834417 1612.834417 0 0 1-4.797913-166.359633c27.508034 5.757495 54.312374 13.881961 79.869257 25.17305l12.890393 5.917426c18.871791 8.796174 40.302468 18.775833 64.707852 22.006427 44.716548 6.04537 91.064387-12.890393 117.932699-48.043102a119.500017 119.500017 0 0 0 12.154713-125.065596 31.986086 31.986086 0 0 0-57.255094 28.531589 55.81572 55.81572 0 0 1-5.693523 57.670913c-12.794434 16.728723-36.911943 26.452493-58.726454 23.477787-14.7136-1.919165-29.970963-9.052062-46.123936-16.568792l-14.009906-6.397218c-48.522893-21.462664-99.5407-32.753752-150.910354-38.479261a417.898214 417.898214 0 0 0-27.795909-99.604672c12.250671-9.084048 24.821203-17.784264 37.871526-25.844758 79.709326-49.258573 165.240121-68.930015 240.855228-55.527845 56.231539 10.011645 113.134786 38.767136 178.994137 90.520623 133.158076 104.562515 234.553969 241.65488 293.152479 396.499523a31.986086 31.986086 0 1 0 59.813981-22.646149c-62.692729-165.751898-171.12556-312.440089-313.463643-424.199473z m-601.658279 135.844907a896.50602 896.50602 0 0 1 78.589814-73.919844c9.56384 24.469356 16.312904 49.898294 20.694997 75.870996a1135.825916 1135.825916 0 0 0-99.252825-1.919165z" fill="#e6e6e6" p-id="2205"></path><path d="M804.564916 303.193551c-14.841544 10.235548-38.895081 13.722031-65.891337 9.435895-19.095693-3.006692-37.935498-9.116035-57.894816-15.545238-9.020076-2.878748-18.040153-5.789482-27.124201-8.444326l-3.358539-0.959583c-16.952626-4.861885-33.041627 5.437635-37.903512 22.358274-4.893871 16.952626 6.397217 35.05675 23.317857 39.982608 8.508299 2.494915 16.952626 5.245718 25.396952 7.932549 21.430678 6.908995 43.565049 14.073878 67.554614 17.880222 43.72498 6.877009 83.611629-0.223903 112.303148-20.055276 31.826156-22.006427 50.538016-59.302204 54.056486-107.857082 6.397217-88.793375-33.073613-177.682708-105.554084-237.848536a32.050058 32.050058 0 0 0-51.273696 16.089002 298.014364 298.014364 0 0 1-60.613633 112.910883L668.720009 29.42464a31.986086 31.986086 0 0 0-30.258837-29.331241c-24.661272-1.375402-48.714809 12.538546-62.340882 35.024765-7.644675 12.570532-10.875269 25.141064-13.754017 36.240235l-2.015124 7.420772c-3.038678 10.555408-7.260842 20.726984-12.66649 30.450754l-14.553669-35.728458c-4.957843-12.122727-11.706907-28.755491-26.22859-42.221634-19.511512-18.040153-47.659268-23.669704-70.145487-13.945933a31.986086 31.986086 0 0 0-19.12768 32.721766 185.903132 185.903132 0 0 1-20.215206 104.178682 241.49495 241.49495 0 0 0-79.805285-68.770085 31.986086 31.986086 0 0 0-47.179477 29.075352c1.087527 37.295776 2.239026 77.790161-4.510038 116.013534-9.180007-8.508299-19.511512-15.993043-30.706642-22.166357a31.986086 31.986086 0 0 0-45.772089 17.912208l-59.813981 179.409957a31.986086 31.986086 0 1 0 60.709591 20.18322l44.652576-134.021701c4.446066 6.493175 7.836591 13.434156 10.011645 20.726984a31.986086 31.986086 0 0 0 27.731937 22.710121c12.794434 0.863624 25.428938-5.693523 31.37835-17.336458 22.710121-44.46066 29.427199-93.207455 30.802601-138.947558 13.050323 14.29778 23.413815 30.48274 30.226851 47.56331a31.986086 31.986086 0 0 0 53.896555 9.052062 260.430713 260.430713 0 0 0 59.909939-125.577374l30.066921 73.855873a31.986086 31.986086 0 0 0 51.433627 11.35506 221.183785 221.183785 0 0 0 51.657529-72.064651l2.079095 25.684827c3.294567 40.366441 23.509773 55.016068 39.854663 60.197814 13.881961 4.382094 41.645884 6.813036 70.52932-26.612424a369.439294 369.439294 0 0 0 57.28708-89.593027c35.152709 43.341147 53.192861 97.045785 49.322545 150.366591-1.439374 19.927332-7.228855 46.475783-26.612424 59.909939z" fill="#e6e6e6" p-id="2206"></path></svg>