<?xml version="1.0" standalone="no"?><!DOCTYPE svg PUBLIC "-//W3C//DTD SVG 1.1//EN" "http://www.w3.org/Graphics/SVG/1.1/DTD/svg11.dtd"><svg t="1637214727238" class="icon" viewBox="0 0 1024 1024" version="1.1" xmlns="http://www.w3.org/2000/svg" p-id="7470" xmlns:xlink="http://www.w3.org/1999/xlink" width="128" height="128"><defs><style type="text/css"></style></defs><path d="M336 320c-70.656 7.904-154.56 56.896-206.144 108.384-51.584 51.52-86.528 121.216-97.856 195.168 39.104 0.736 78.528 1.472 117.024-5.696 38.528-7.168 76.576-22.848 105.088-51.104M688 320c70.656 7.904 154.56 56.896 206.144 108.384 51.584 51.52 86.528 121.216 97.856 195.168-39.104 0.736-78.528 1.472-117.056-5.696-38.496-7.168-76.544-22.848-105.056-51.104L688 320z" fill="#e6e6e6" p-id="7471"></path><path d="M512 224m-64 0a64 64 0 1 0 128 0 64 64 0 1 0-128 0Z" fill="#e6e6e6" p-id="7472"></path><path d="M416 224m-64 0a64 64 0 1 0 128 0 64 64 0 1 0-128 0Z" fill="#e6e6e6" p-id="7473"></path><path d="M320 256m-64 0a64 64 0 1 0 128 0 64 64 0 1 0-128 0Z" fill="#e6e6e6" p-id="7474"></path><path d="M608 224m-64 0a64 64 0 1 0 128 0 64 64 0 1 0-128 0Z" fill="#e6e6e6" p-id="7475"></path><path d="M704 256m-64 0a64 64 0 1 0 128 0 64 64 0 1 0-128 0Z" fill="#e6e6e6" p-id="7476"></path><path d="M448 480m-32 0a32 32 0 1 0 64 0 32 32 0 1 0-64 0Z" fill="#e6e6e6" p-id="7477"></path><path d="M576 480m-32 0a32 32 0 1 0 64 0 32 32 0 1 0-64 0Z" fill="#e6e6e6" p-id="7478"></path><path d="M0.192 621.12a16.064 16.064 0 0 0 15.488 18.432c12 0.224 24.096 0.448 36.288 0.448 27.84 0 56.032-1.216 84-6.4 33.76-6.304 63.68-18.336 88.288-35.104-0.832 47.424 5.056 93.632 18.24 136.416 36.832 120 138.144 210.368 252 224.768a31.744 31.744 0 0 0 4.032 0.256h26.944a31.744 31.744 0 0 0 4.032-0.256c113.856-14.4 215.168-104.736 252.032-224.768 13.12-42.784 19.072-88.96 18.24-136.416 24.608 16.768 54.496 28.8 88.256 35.072 27.968 5.216 56.192 6.432 84 6.432 12.16 0 24.288-0.224 36.288-0.448a16.064 16.064 0 0 0 15.488-18.432c-11.84-77.504-48.224-149.984-102.4-204.064-41.792-41.76-113.536-89.216-183.552-106.944C755.904 298.816 768 278.88 768 256a64 64 0 0 0-99.84-53.024A63.808 63.808 0 0 0 608 160c-19.2 0-36.256 8.64-48 22.08-11.744-13.44-28.8-22.08-48-22.08s-36.256 8.64-48 22.08C452.256 168.64 435.2 160 416 160c-27.936 0-51.456 18.016-60.16 42.976A64 64 0 0 0 256 256c0 22.88 12.096 42.816 30.144 54.112-70.016 17.728-141.76 65.184-183.584 106.944-54.144 54.08-90.528 126.56-102.4 204.064z m898.624-181.408c45.152 45.056 76.736 104.224 90.08 168.16-31.776 0.48-64.064 0-94.976-5.76-39.872-7.424-73.28-23.52-96.64-46.592a535.68 535.68 0 0 0-25.12-114.912c-13.664-40.544-30.144-73.888-49.92-101.184 58.176 12.64 127.968 51.712 176.576 100.288zM704 224c17.632 0 32 14.368 32 32s-14.368 32-32 32-32-14.368-32-32 14.368-32 32-32z m-96-32c17.632 0 32 14.368 32 32s-14.368 32-32 32-32-14.368-32-32 14.368-32 32-32z m-96 0c17.632 0 32 14.368 32 32s-14.368 32-32 32-32-14.368-32-32 14.368-32 32-32z m-96 0c17.632 0 32 14.368 32 32s-14.368 32-32 32-32-14.368-32-32 14.368-32 32-32z m-47.552 166.848c23.136-24.736 51.488-38.912 77.76-38.912l6.56 0.192 120.448-0.064 4.608-0.128c26.24 0 54.592 14.176 77.76 38.944 22.592 24.16 40.928 57.6 55.904 102.144 29.44 87.392 32.544 178.016 8.864 255.104-29.376 95.68-108.384 167.68-196.992 179.808h-22.72c-88.608-12.096-167.616-84.096-196.992-179.808-23.68-77.12-20.544-167.68 8.832-255.072 15.04-44.608 33.344-78.016 55.968-102.208zM320 224c17.632 0 32 14.368 32 32s-14.368 32-32 32-32-14.368-32-32 14.368-32 32-32z m-18.24 115.424c-19.776 27.296-36.256 60.64-49.92 101.216a535.968 535.968 0 0 0-25.12 114.88c-23.36 23.04-56.768 39.168-96.64 46.592-30.912 5.76-63.296 6.24-94.976 5.76 13.344-63.936 44.928-123.104 90.08-168.16 48.64-48.576 118.4-87.68 176.608-100.288z" fill="#e6e6e6" p-id="7479"></path><path d="M453.408 763.616a16 16 0 0 0-10.816 30.112c10.784 3.84 19.616 16.128 21.568 29.824a16 16 0 1 0 31.68-4.448c-3.552-25.376-20.608-47.68-42.432-55.488zM541.76 837.184a16 16 0 0 0 18.048-13.632c1.984-13.696 10.816-25.952 21.6-29.824a16 16 0 0 0-10.816-30.112c-21.824 7.808-38.88 30.112-42.432 55.488a16 16 0 0 0 13.632 18.08z" fill="#e6e6e6" p-id="7480"></path></svg>