<?xml version="1.0" standalone="no"?><!DOCTYPE svg PUBLIC "-//W3C//DTD SVG 1.1//EN" "http://www.w3.org/Graphics/SVG/1.1/DTD/svg11.dtd"><svg t="1637214544290" class="icon" viewBox="0 0 1024 1024" version="1.1" xmlns="http://www.w3.org/2000/svg" p-id="2404" xmlns:xlink="http://www.w3.org/1999/xlink" width="128" height="128"><defs><style type="text/css"></style></defs><path d="M384.043985 447.846053m-63.978008 0a63.978008 63.978008 0 1 0 127.956015 0 63.978008 63.978008 0 1 0-127.956015 0Z" fill="#e6e6e6" p-id="2405"></path><path d="M639.956015 447.846053m-63.978007 0a63.978008 63.978008 0 1 0 127.956015 0 63.978008 63.978008 0 1 0-127.956015 0Z" fill="#e6e6e6" p-id="2406"></path><path d="M384.043985 511.82406a63.978008 63.978008 0 1 0 0-127.956015 63.978008 63.978008 0 0 0 0 127.956015z m0-95.967011c17.625941 0 31.989004 14.363063 31.989004 31.989004s-14.363063 31.989004-31.989004 31.989004-31.989004-14.363063-31.989004-31.989004 14.363063-31.989004 31.989004-31.989004zM575.978008 447.846053a63.978008 63.978008 0 1 0 127.956015 0 63.978008 63.978008 0 0 0-127.956015 0z m63.978007-31.989004c17.625941 0 31.989004 14.363063 31.989004 31.989004s-14.363063 31.989004-31.989004 31.989004-31.989004-14.363063-31.989004-31.989004 14.363063-31.989004 31.989004-31.989004z" fill="#e6e6e6" p-id="2407"></path><path d="M458.578364 731.268626c-34.516135-13.81925-39.858299-25.911093-37.331168-40.849957a15.994502 15.994502 0 0 0-13.115491-18.457656 16.442348 16.442348 0 0 0-18.425666 13.115492c-8.413108 49.710912 39.058574 68.71238 56.972415 75.909906 8.157196 3.262878 13.595327 8.956921 15.706601 16.570304 2.591109 9.116866 0.031989 20.057105-6.781669 29.173971a42.289463 42.289463 0 0 1-31.989003 16.410359l-1.695418 0.031989c-38.322827 0-85.186717-37.970947-93.791759-76.389741-1.59945-7.037581-2.87901-14.203118-4.222548-21.368654-4.734373-26.00706-9.692668-52.877823-26.135016-75.845928a207.288744 207.288744 0 0 0-20.472963-23.575896c-9.244822-9.564712-17.945831-18.6176-23.671863-30.549499-30.389554-63.59414-1.823373-139.472056 33.588454-212.023117a15.994502 15.994502 0 1 0-28.758114-14.043172c-38.898629 79.748586-69.895973 164.007622-33.684421 239.821561 7.933273 16.634282 18.873512 28.022367 29.493862 39.026585 6.045922 6.237856 12.155821 12.5077 17.497985 19.961138 12.283777 17.178095 16.37837 39.442442 20.696885 62.986348 1.407516 7.581394 2.783043 15.162788 4.414483 22.584237 11.835931 52.877823 72.103215 101.405142 125.140982 101.405142h2.559121a73.958577 73.958577 0 0 0 56.652525-29.301927c12.923558-17.274062 17.274062-38.066914 11.963888-56.972416-4.83034-17.274062-17.146106-30.613477-34.644091-37.619069zM744.176189 362.019556a15.994502 15.994502 0 0 0-7.35747 21.400643c35.379838 72.519072 63.91403 148.428978 33.588454 212.023117-5.758021 11.931898-14.45903 20.984786-23.703852 30.549499a207.288744 207.288744 0 0 0-20.472963 23.575896c-16.442348 22.968105-21.400644 49.838868-26.135016 75.813939-1.311549 7.197526-2.623098 14.395052-4.222548 21.400643-8.701009 39.026585-56.268658 78.373059-95.519166 76.357752a42.257474 42.257474 0 0 1-31.989003-16.410359c-6.781669-9.116866-9.340789-20.057105-6.74968-29.173971 2.111274-7.581394 7.549405-13.307426 15.706601-16.570304 17.913842-7.197526 65.385524-26.230983 56.972415-75.909906a16.346381 16.346381 0 0 0-18.425666-13.115492 15.994502 15.994502 0 0 0-13.115491 18.457656c2.527131 14.970854-2.815032 27.030708-37.299179 40.849957-17.497985 7.005592-29.813752 20.345006-34.644091 37.619069-5.310175 18.905501-0.95967 39.666365 11.963888 56.972416a73.958577 73.958577 0 0 0 59.211646 29.301927c53.037768 0 113.273062-48.527319 125.140982-101.405142 1.631439-7.421449 3.006966-15.002843 4.414483-22.584237 4.318516-23.543907 8.413108-45.808253 20.696885-63.018337 5.342164-7.421449 11.452063-13.691294 17.497985-19.929149 10.620349-11.004217 21.560589-22.392303 29.493862-39.026585 36.211552-75.813939 5.214208-160.072975-33.684421-239.821561a15.962513 15.962513 0 0 0-21.368655-7.357471z" fill="#e6e6e6" p-id="2408"></path><path d="M930.032301 417.488488c-12.699635-29.429883-30.389554-57.324295-54.061416-85.314673-13.531349-15.994502-19.161413-29.621818-17.178095-41.649683 3.230889-19.609259 14.491019-37.203211 27.510543-57.516228 14.203118-22.136391 30.229609-47.247759 36.691388-78.628972 10.556371-51.566274-6.045922-117.5276-58.379932-143.758583-35.251882-17.721908-81.89185-12.315766-119.510918 13.051514-21.176721 14.299085-38.130893 32.788729-52.941802 51.406329C629.559589 38.86664 548.019618 32.788729 511.296242 31.989004c-35.507794 0.799725-116.88782 6.877636-179.458311 43.089188-14.810909-18.649589-31.765081-37.107244-52.941802-51.406329C241.213083-1.663428 194.541126-7.101559 159.4172 10.556371 107.019212 36.851332 90.38493 102.812658 101.005279 154.346943c6.461779 31.413202 22.48827 56.52457 36.691388 78.660961 13.019525 20.313017 24.279654 37.906969 27.510543 57.548217 1.983318 11.995876-3.646746 25.591203-17.210084 41.617694-23.671863 27.990378-41.329793 55.88479-53.997438 85.282684-26.870763 61.930711-35.987629 133.58608-25.655181 201.722658 15.674612 103.324482 74.854269 204.281778 162.408172 276.992784 53.485614 44.368748 117.911468 79.652619 191.454187 104.795976 4.350505 1.471494 8.956921 3.1989 13.691294 4.926307 6.237856 2.303208 12.763613 4.670395 19.417325 6.909625 15.034832 5.022274 34.804036 10.844272 55.88479 10.844272h2.335197c20.249039 0 40.114211-5.79001 55.181032-10.876261 6.621724-2.23923 13.115492-4.574428 19.385336-6.877636 4.734373-1.759395 9.340789-3.454812 13.659305-4.926307 73.574709-25.175346 138.000562-60.427228 191.486176-104.795976 87.553903-72.711006 146.765549-173.700291 162.408172-277.024773 10.332448-68.136578 1.215582-139.759958-25.591203-201.65868z m-37.587079 192.093968c-13.371404 88.033738-64.425854 174.532005-140.047859 237.358408-47.503671 39.410453-105.115866 70.855643-171.365093 93.471869-4.734373 1.663428-9.788635 3.51879-15.034832 5.438131-5.662054 2.079285-11.643997 4.254538-17.65793 6.301834-9.62869 3.1989-23.671863 7.517416-34.804036 7.517415v31.989004l-3.070944-31.989004c-11.132173 0-25.175346-4.286527-34.772047-7.517415-6.077911-2.047296-12.027865-4.222548-17.689919-6.333823-5.246197-1.91934-10.300459-3.742713-15.066821-5.406142-66.217238-22.616226-123.829434-54.061416-171.333104-93.471869-75.622005-62.826403-126.676455-149.32467-140.047859-237.358408-8.509075-56.428603-1.023648-115.60826 21.112743-166.66271 10.204492-23.639874 24.663522-46.320077 44.176814-69.416138 26.039049-30.805411 36.627409-62.218612 31.477179-93.343913-5.342164-32.628784-22.040424-58.699822-36.755365-81.667927-12.219799-19.161413-23.831808-37.203211-27.894411-57.004404-5.502109-26.806785 2.23923-62.60248 24.439599-73.702665C193.101621 65.257568 198.891631 63.978008 205.225454 63.978008c12.059854 0 25.911093 4.670395 37.938958 12.731623 21.496611 14.523008 39.026585 38.194871 55.980757 61.098997a32.052982 32.052982 0 0 0 46.256099 5.47012c33.428509-27.990378 95.967011-45.712286 165.894974-47.343726 71.335478 1.631439 133.873981 19.353347 167.30249 47.343726a32.020993 32.020993 0 0 0 46.256099-5.47012c16.954172-22.904127 34.484146-46.57599 55.980757-61.098997 18.361688-12.347755 40.434101-16.314392 55.085064-8.924932 22.136391 11.100184 29.909719 46.89588 24.40761 73.734654-4.062603 19.769204-15.674612 37.811002-27.894411 56.972415-14.714942 22.968105-31.413202 49.007154-36.755365 81.635938-5.15023 31.15729 5.438131 62.570491 31.477179 93.343913 19.513292 23.12805 33.972322 45.808253 44.144825 69.448127 22.16838 51.05445 29.653807 110.234107 21.112743 166.66271z" fill="#e6e6e6" p-id="2409"></path><path d="M555.888913 197.052263l63.466184 19.065447a15.994502 15.994502 0 0 0 9.212833-30.645466l-63.498173-19.065446a48.207429 48.207429 0 0 0-49.231077 13.595326l-3.83868 4.222549-3.83868-4.222549a48.303396 48.303396 0 0 0-49.263066-13.595326l-63.466184 19.065446a15.994502 15.994502 0 1 0 9.212833 30.645466l63.466184-19.065447a15.994502 15.994502 0 0 1 16.442348 4.542439l15.642623 17.114117a15.994502 15.994502 0 0 0 23.607884 0l15.674612-17.146106a16.186436 16.186436 0 0 1 16.410359-4.51045z" fill="#e6e6e6" p-id="2410"></path></svg>