<?xml version="1.0" standalone="no"?><!DOCTYPE svg PUBLIC "-//W3C//DTD SVG 1.1//EN" "http://www.w3.org/Graphics/SVG/1.1/DTD/svg11.dtd"><svg t="1637214597237" class="icon" viewBox="0 0 1024 1024" version="1.1" xmlns="http://www.w3.org/2000/svg" p-id="3845" xmlns:xlink="http://www.w3.org/1999/xlink" width="128" height="128"><defs><style type="text/css"></style></defs><path d="M281.568 800l-34.624 39.552c-14.304 16.32-28.704 32.768-39.36 51.712-10.624 18.944-17.408 40.832-15.136 62.496 1.12 10.784 4.736 21.76 12.512 29.12 11.84 11.296 31.232 11.552 45.536 3.744 14.336-7.84 24.16-22.208 30.624-37.344 6.432-15.136 9.984-31.36 15.072-47.04 5.12-15.648 12.032-31.2 23.808-42.592L281.568 800zM742.432 800l34.624 39.552c14.304 16.32 28.704 32.768 39.36 51.712 10.624 18.944 17.408 40.832 15.136 62.496-1.12 10.784-4.736 21.76-12.512 29.12-11.84 11.296-31.232 11.552-45.536 3.744-14.336-7.84-24.16-22.208-30.624-37.344-6.432-15.136-9.984-31.36-15.072-47.04-5.12-15.648-12.032-31.2-23.808-42.592L742.432 800zM320 397.216a296.704 296.704 0 0 1-46.976-77.44c-6.08-14.688-10.88-29.856-17.792-44.256-6.912-14.4-16.192-28.224-29.536-38.176-13.376-9.952-31.36-15.648-48.288-12.48-16.352 3.104-30.016 14.144-38.048 27.456-8 13.344-10.88 28.768-11.296 43.936-1.44 50.176 24.096 100.416 67.04 131.968 25.568 18.752 56.576 31.104 80.288 51.776L320 397.216zM704 397.216a296.704 296.704 0 0 0 46.976-77.44c6.08-14.688 10.88-29.856 17.792-44.256 6.912-14.4 16.192-28.224 29.536-38.176 13.376-9.952 31.36-15.648 48.288-12.48 16.352 3.104 30.016 14.144 38.048 27.456 8 13.344 10.88 28.768 11.296 43.936 1.44 50.176-24.096 100.416-67.04 131.968-25.568 18.752-56.576 31.104-80.288 51.776L704 397.216zM448 720L384 608l64-112h128l64 112-64 112z" fill="#e6e6e6" p-id="3846"></path><path d="M464 144.16m-16 0a16 16 0 1 0 32 0 16 16 0 1 0-32 0Z" fill="#e6e6e6" p-id="3847"></path><path d="M560 144.16m-16 0a16 16 0 1 0 32 0 16 16 0 1 0-32 0Z" fill="#e6e6e6" p-id="3848"></path><path d="M847.84 454.016c51.136-37.568 81.824-98.368 80.096-158.656-0.64-23.36-5.856-42.848-15.872-59.52a89.376 89.376 0 0 0-59.552-42.4c-24.736-4.64-51.52 1.984-73.312 18.24-16 11.904-28.8 28.256-39.264 49.984-4.768 9.92-8.64 20.096-12.48 30.336-1.984 5.216-3.936 10.464-6.08 15.648a259.456 259.456 0 0 1-18.944 36.992 291.584 291.584 0 0 0-66.496-53.888 187.424 187.424 0 0 0 38.72-114.752c0-97.056-71.776-176-160-176s-160 78.944-160 176c0 41.504 13.536 81.28 37.152 112.544a290.368 290.368 0 0 0-70.24 56.096 259.264 259.264 0 0 1-18.944-37.024c-2.144-5.152-4.096-10.4-6.08-15.616-3.84-10.24-7.712-20.448-12.48-30.336-10.432-21.76-23.296-38.08-39.264-49.984-21.824-16.288-48.64-22.944-73.28-18.24A89.376 89.376 0 0 0 111.936 235.84c-10.048 16.672-15.264 36.16-15.904 59.52-1.728 60.288 28.96 121.088 80.096 158.656 12.512 9.184 25.6 16.672 38.272 23.936 9.056 5.184 17.536 10.336 25.504 15.648A420.512 420.512 0 0 0 224 608c0 61.344 12.96 119.04 35.616 169.28-0.64 0.64-1.536 0.96-2.176 1.664l-34.592 39.52c-14.432 16.512-30.816 35.2-43.136 57.12-15.232 27.072-21.824 55.264-19.104 81.504 2.112 20.16 9.792 37.12 22.272 48.992 12.448 11.84 29.28 17.92 46.656 17.92 12.288 0 24.864-3.04 36.352-9.312 18.88-10.368 34.368-28.64 44.672-52.864 4.992-11.744 8.288-23.2 11.488-34.336 1.472-5.12 2.944-10.24 4.608-15.36 3.456-10.688 7.104-18.624 11.264-24.384C386.336 932.864 446.56 960 512 960s125.664-27.136 174.08-72.256c4.16 5.76 7.808 13.696 11.264 24.384 1.664 5.12 3.136 10.24 4.608 15.36 3.2 11.136 6.496 22.592 11.488 34.304 10.304 24.256 25.76 42.56 44.704 52.896 11.456 6.272 24 9.312 36.32 9.312 17.376 0 34.24-6.08 46.688-17.92 12.448-11.904 20.128-28.8 22.24-48.96 2.72-26.24-3.84-54.464-19.104-81.536-12.32-21.92-28.704-40.64-43.136-57.12l-34.592-39.52c-0.64-0.736-1.504-1.024-2.176-1.664A412.16 412.16 0 0 0 800 608c0-40.096-5.76-78.464-15.936-114.4 8-5.312 16.448-10.464 25.504-15.68 12.672-7.232 25.76-14.72 38.272-23.936z m-189.888-64c6.176 6.816 12 14.144 17.568 21.76l0.16 0.256c34.624 47.808 56.704 110.592 59.68 179.968h-86.08l-54.88-96.064 63.552-105.92zM621.568 608l-54.848 96h-109.44l-54.848-96 54.848-96h109.44l54.848 96z m-106.88-544c52.928 0 96 50.24 96 112 0 34.688-14.24 66.88-37.696 88.128A237.664 237.664 0 0 0 512 256c-19.424 0-38.4 2.432-56.768 6.944-22.72-21.248-36.576-52.8-36.576-86.944 0-61.76 43.072-112 96-112zM512 320c45.152 0 87.168 17.408 122.4 47.104L566.656 480h-109.6l-67.648-112.736C424.672 337.472 466.752 320 512 320z m-163.68 92.064l0.16-0.256c5.504-7.584 11.296-14.816 17.376-21.6l63.616 105.984L374.72 592H288.64c2.976-69.376 25.024-132.16 59.68-179.936z m-102.08 10.336a340.192 340.192 0 0 1-32.192-19.968c-34.432-25.28-55.136-65.632-54.016-105.28 0.352-12.064 2.56-21.344 6.784-28.352 3.904-6.496 10.24-11.296 16.512-12.48 6.88-1.28 16.032 1.312 23.232 6.688 7.488 5.568 13.984 14.208 19.84 26.368 3.936 8.192 7.04 16.64 10.24 25.12 2.176 5.856 4.416 11.712 6.784 17.504 9.696 23.552 22.272 45.952 37.44 66.912-6.496 10.688-12.544 21.792-18.048 33.376-5.536-3.328-11.104-6.72-16.608-9.92z m19.52 469.952c-1.856 5.76-3.552 11.616-5.216 17.44-2.624 9.12-5.184 18.24-8.896 26.944-4.544 10.72-10.4 18.464-16.48 21.792-3.392 1.856-7.296 1.664-8.128 1.216-0.416-0.416-2.144-3.2-2.784-9.28-1.696-16.416 5.152-32.736 11.2-43.52 9.12-16.128 21.952-30.784 35.52-46.304l21.824-24.896 2.656 3.584c-16.416 17.12-24.896 38.24-29.696 53.024zM288.64 624h86.08l54.08 94.688-64.224 105.6C320.672 774.784 292.064 703.68 288.64 624zM512 896c-45.888 0-88.576-17.888-124.128-48.448L455.712 736h112.256l67.936 111.712C600.384 878.176 557.824 896 512 896z m147.264-71.52l-64.224-105.536L649.28 624h86.08c-3.424 79.808-32.128 150.976-76.096 200.48z m129.28 82.464c6.048 10.784 12.896 27.104 11.2 43.52-0.64 6.08-2.368 8.864-2.56 9.12-1.088 0.608-4.992 0.8-8.32-1.056-6.08-3.328-11.968-11.072-16.544-21.824-3.68-8.672-6.24-17.792-8.864-26.88a532.48 532.48 0 0 0-5.216-17.472c-4.8-14.752-13.28-35.904-29.696-53.024l2.656-3.584 21.792 24.896c13.6 15.52 26.432 30.176 35.52 46.304zM777.76 422.4c-5.504 3.136-11.072 6.56-16.64 9.888-5.44-11.584-11.52-22.688-18.016-33.376 15.168-20.96 27.744-43.36 37.44-66.912 2.368-5.792 4.608-11.648 6.784-17.504 3.2-8.48 6.304-16.928 10.24-25.088 5.856-12.192 12.352-20.8 19.84-26.4 7.2-5.344 16.416-8 23.232-6.656 6.272 1.152 12.608 5.952 16.544 12.48 4.16 6.976 6.4 16.256 6.72 28.352 1.152 39.616-19.52 79.936-53.984 105.248-9.6 7.04-20.576 13.312-32.16 19.968z" fill="#e6e6e6" p-id="3849"></path></svg>