<?xml version="1.0" standalone="no"?><!DOCTYPE svg PUBLIC "-//W3C//DTD SVG 1.1//EN" "http://www.w3.org/Graphics/SVG/1.1/DTD/svg11.dtd"><svg t="1637214697379" class="icon" viewBox="0 0 1024 1024" version="1.1" xmlns="http://www.w3.org/2000/svg" p-id="6364" xmlns:xlink="http://www.w3.org/1999/xlink" width="128" height="128"><defs><style type="text/css"></style></defs><path d="M623.318221 895.408262c-2.23916 24.950636-7.037359 50.541031-23.031356 70.373588-20.152437 25.270516-49.581391 26.230155-88.286865 26.230155s-68.134428-0.95964-88.286865-26.230155c-15.993997-19.832557-21.112076-45.742832-23.031356-71.013348 52.460311-28.469315 132.430297-50.541031 222.636442 0.63976z" fill="#e6e6e6" p-id="6365"></path><path d="M352.060027 544.180082m-31.987994 0a31.987995 31.987995 0 1 0 63.975989 0 31.987995 31.987995 0 1 0-63.975989 0Z" fill="#e6e6e6" p-id="6366"></path><path d="M671.939973 544.180082m-31.987995 0a31.987995 31.987995 0 1 0 63.975989 0 31.987995 31.987995 0 1 0-63.975989 0Z" fill="#e6e6e6" p-id="6367"></path><path d="M92.637392 494.086883c-5.597899 12.219414-11.067846 24.470816-16.537793 36.786194l-9.116579 20.344364a31.987995 31.987995 0 0 0 32.595767 44.911144 177.21349 177.21349 0 0 0 24.310876 90.206145 31.987995 31.987995 0 0 0 46.25464 9.852302c6.461575-4.638259 13.051102-9.116578 19.640628-13.594897 9.660374 6.845431 19.192797 14.138694 29.109075 21.719848 17.177553 13.147066 34.962878 26.741963 54.379591 38.577521 37.17005 22.839428 71.589132 45.966748 84.416318 77.410947 6.717479 16.249901 7.996999 35.666614 9.40447 56.202906l0.95964 12.187426c0 3.614643 0.47982 7.837059 0.735724 8.508807 1.855304 24.374852 6.973383 60.073454 29.940762 88.542769C429.183082 1024 473.166575 1024 512 1024s82.78493 0 113.173525-38.129689c22.071716-27.381723 27.637627-61.193033 29.780822-85.82379 0.575784-3.774583 0.991628-7.581155 0.895664-8.732722l1.055604-14.810442c1.407472-20.536292 2.686992-39.953005 9.468446-56.330858 12.795198-31.348235 47.182292-54.443567 84.256378-77.219019 19.512677-11.899534 37.298002-25.494432 54.475555-38.641497 9.916278-7.581155 19.448701-14.874417 29.109075-21.719848 6.589527 4.478319 13.179054 8.956638 19.640628 13.594897a32.083958 32.083958 0 0 0 46.286628-9.88429 177.21349 177.21349 0 0 0 24.310876-90.174157c1.215544 0.127952 2.55904 0.15994 3.774584 0.191928a32.083958 32.083958 0 0 0 26.422083-50.381091l-6.717479-15.066345c-5.501935-12.315378-10.971882-24.56678-16.537793-36.658242-1.983256-4.414343-4.158439-8.892662-6.397599-13.434958-6.813443-13.946766-14.554538-29.748835-12.155438-38.097701a519.804911 519.804911 0 0 0-49.709343-402.792827C856.766605 29.301323 844.899059 9.56473 821.323907 2.623335a56.394834 56.394834 0 0 0-15.898033-2.271147c-24.72672 0-44.143432 15.578153-56.554775 27.285759-60.905142 57.41845-108.183397 111.766053-143.945975 165.633836h-185.81826C383.344286 139.404 336.06603 85.056397 275.160889 27.669935c-12.411342-11.739594-31.828055-27.317747-56.554775-27.317747-5.405971 0-10.747966 0.735724-15.993997 2.271147-23.543164 6.941395-35.378722 26.677987-42.000237 37.713846a519.453043 519.453043 0 0 0-49.453439 402.249031c2.3991 8.476819-5.341995 24.2469-12.155438 38.193665-2.23916 4.542295-4.414343 9.020614-6.333623 13.307006z m482.634861 451.766446c-9.660374 12.12345-24.310876 14.170682-63.272253 14.170682s-53.611879-2.047232-63.368217-14.298634c-7.677119-9.532422-12.379354-23.575152-14.84243-42.959876 45.199036-30.740463 111.318221-30.708475 156.48527 0.063976-2.015244 15.546165-5.757839 31.508175-15.00237 43.023852zM150.88753 520.572942c1.727352-3.838559 3.646631-7.709107 5.565911-11.675618 11.32375-23.031356 25.36648-51.756575 16.185925-83.936497A454.997234 454.997234 0 0 1 215.695207 72.836983c1.91928-3.198799 3.518679-5.629887 4.734223-7.293262 2.143196 1.27952 5.661875 3.742595 10.875918 8.668746 62.536529 58.921886 109.398941 113.87726 143.210252 168.000947a31.987995 31.987995 0 0 0 27.125819 15.034358h220.717162a31.987995 31.987995 0 0 0 27.125819-15.034358c33.81131-54.123687 80.673722-109.079061 143.24224-168.000947 5.278019-5.022115 8.828686-7.517179 10.811942-8.732722 1.183556 1.5994 2.71898 3.966511 4.478319 6.909406a455.349102 455.349102 0 0 1 43.311745 352.635652c-9.148566 32.115946 4.894163 60.809178 16.217913 83.872521 1.91928 3.966511 3.838559 7.837059 5.629887 11.835558l3.486691 7.645131a31.987995 31.987995 0 0 0-20.664244 40.784693c5.214043 15.482189 5.629887 33.907274 1.663376 51.948503l-4.894164-3.326751a31.987995 31.987995 0 0 0-35.250769-0.95964c-18.265145 11.387726-35.058842 24.2469-51.276756 36.69023-16.601769 12.667246-32.275886 24.662744-49.005607 34.866914-46.57452 28.629255-90.014217 58.410078-110.038701 107.479661-9.948266 24.118948-12.155438 48.845668-13.754838 71.205276-49.357476-25.718348-113.525393-25.718348-162.914856 0-1.535424-22.359608-3.742595-47.086328-13.658874-71.077324-20.088461-49.197536-63.528157-78.978358-110.230629-107.671589-16.633757-10.140194-32.307874-22.135692-48.877655-34.802938-16.217913-12.44333-33.01161-25.270516-51.276756-36.69023a31.987995 31.987995 0 0 0-35.250769 0.95964l-4.894164 3.326751c-3.966511-18.009241-3.550667-36.466314 1.695364-51.948503a31.987995 31.987995 0 0 0-20.696232-40.784693l3.518679-7.805071z" fill="#e6e6e6" p-id="6368"></path><path d="M296.177001 618.328254a15.993997 15.993997 0 0 0 9.596398-30.516547c-19.832557-6.237659-36.946134-21.591896-44.65524-40.080957a68.134428 68.134428 0 0 1 3.070848-57.930258C277.591976 464.977808 307.500751 448.216099 338.62507 448.216099h0.127952c30.068715 0 60.77719 15.098333 80.129926 39.441197 15.802069 19.864545 25.270516 45.998736 28.149435 77.634863 2.623016 29.269015-0.63976 59.689598-3.774583 89.15054a15.993997 15.993997 0 0 0 31.796066 3.390728c3.326751-30.996367 6.749467-63.016349 3.83856-95.420188-3.454703-37.969749-15.226285-69.829792-34.962878-94.684463-25.270516-31.764079-65.575389-51.500671-105.176526-51.500672h-0.191928c-42.544033 0.063976-83.74457 23.543164-102.553511 58.37809a100.314351 100.314351 0 0 0-4.446331 85.439934 104.216886 104.216886 0 0 0 64.583761 58.282126zM564.780191 672.13206a16.089961 16.089961 0 0 0 15.930021-17.689361c-3.134823-29.428955-6.397599-59.881526-3.742595-89.15054 2.87892-31.668115 12.315378-57.770318 28.149435-77.634863 19.352737-24.374852 51.724587-39.601137 80.22589-39.441197 31.156307 0.031988 61.09707 16.761709 74.468051 41.584393 9.596398 17.817313 10.747966 39.473185 3.070848 57.930258-7.709107 18.489061-24.822684 33.843298-44.65524 40.080957a15.993997 15.993997 0 0 0 9.596398 30.516547 104.216886 104.216886 0 0 0 64.583761-58.282126 100.314351 100.314351 0 0 0-4.478319-85.407946c-18.776953-34.866914-59.97749-58.346102-102.521523-58.410078h-0.191928c-39.633125 0-79.90601 19.736593-105.176526 51.500672-19.736593 24.854672-31.508175 56.714714-34.93089 94.684463-2.942895 32.403838 0.47982 64.423821 3.806572 95.420188a15.993997 15.993997 0 0 0 15.866045 14.298633z" fill="#e6e6e6" p-id="6369"></path></svg>